<?xml version="1.0" encoding="UTF-8" standalone="no"?>
<!-- Generator: Adobe Illustrator 19.0.0, SVG Export Plug-In . SVG Version: 6.00 Build 0)  -->

<svg
   version="1.1"
   id="Capa_1"
   x="0px"
   y="0px"
   viewBox="0 0 1509.395 500.88568"
   xml:space="preserve"
   sodipodi:docname="bioreleasedate.svg"
   width="1509.395"
   height="500.88568"
   inkscape:version="1.2 (1:1.2+202206011327+fc4e4096c5)"
   inkscape:export-filename="bioreleasedate.png"
   inkscape:export-xdpi="96"
   inkscape:export-ydpi="96"
   xmlns:inkscape="http://www.inkscape.org/namespaces/inkscape"
   xmlns:sodipodi="http://sodipodi.sourceforge.net/DTD/sodipodi-0.dtd"
   xmlns="http://www.w3.org/2000/svg"
   xmlns:svg="http://www.w3.org/2000/svg"><defs
   id="defs44" /><sodipodi:namedview
   id="namedview42"
   pagecolor="#ffffff"
   bordercolor="#000000"
   borderopacity="0.25"
   inkscape:showpageshadow="2"
   inkscape:pageopacity="0.0"
   inkscape:pagecheckerboard="0"
   inkscape:deskcolor="#d1d1d1"
   showgrid="false"
   inkscape:zoom="0.43367347"
   inkscape:cx="169.48235"
   inkscape:cy="310.14118"
   inkscape:window-width="1872"
   inkscape:window-height="1016"
   inkscape:window-x="48"
   inkscape:window-y="27"
   inkscape:window-maximized="1"
   inkscape:current-layer="Capa_1" />
<rect
   style="opacity:1;fill:#ffffff;fill-opacity:1;fill-rule:evenodd;stroke:none;stroke-width:0.0963162;-inkscape-stroke:none;stop-color:#000000"
   id="rect4622"
   width="1471.1809"
   height="460.99127"
   x="21.21487"
   y="23.950594"
   ry="30.825506" /><path
   id="rect451"
   style="fill:#030525;fill-opacity:1;fill-rule:evenodd;stroke:none;stroke-width:0.289387;-inkscape-stroke:none;stop-color:#000000"
   d="M 55.196056,21.347847 C 39.678688,21.186384 20.136199,35.477402 20.372536,56.008572 l 3.7366,324.606988 C 70.784968,411.51284 126.51935,427.48265 183.29976,426.22911 330.35913,422.39064 446.80189,306.27685 444.44059,165.82608 443.48244,115.42059 426.9821,66.403447 397.00301,24.904461 Z"
   sodipodi:nodetypes="ssccccs" /><g
   id="line_35_"
   transform="matrix(0.64936926,0,0,0.64936926,25.992766,44.914954)"
   style="fill:#00d7ff;fill-opacity:1">
	<path
   d="M 174.203,490 V 281.061 H 67.015 V 490 Z M 97.64,311.686 h 45.938 V 459.375 H 97.64 Z"
   id="path2"
   style="fill:#00d7ff;fill-opacity:1" />
	<path
   d="M 204.828,490 H 312.016 V 210.623 H 204.828 Z m 30.625,-248.752 h 45.937 v 218.127 h -45.937 z"
   id="path4"
   style="fill:#00d7ff;fill-opacity:1" />
	<path
   d="M 449.828,136.312 H 342.64 V 490 H 449.828 Z M 419.203,459.375 H 373.265 V 166.937 h 45.938 z"
   id="path6"
   style="fill:#00d7ff;fill-opacity:1" />
	<path
   d="m 344.799,0 -89.716,49.046 29.982,19.432 C 190.572,185.894 41.704,214.344 40.172,214.635 l 5.451,30.135 c 6.845,-1.24 163.783,-30.962 265.304,-159.526 l 30.855,19.983 z"
   id="path8"
   style="fill:#00d7ff;fill-opacity:1" />
</g>
<g
   id="g11">
</g>
<g
   id="g13">
</g>
<g
   id="g15">
</g>
<g
   id="g17">
</g>
<g
   id="g19">
</g>
<g
   id="g21">
</g>
<g
   id="g23">
</g>
<g
   id="g25">
</g>
<g
   id="g27">
</g>
<g
   id="g29">
</g>
<g
   id="g31">
</g>
<g
   id="g33">
</g>
<g
   id="g35">
</g>
<g
   id="g37">
</g>
<g
   id="g39">
</g>
<text
   xml:space="preserve"
   style="font-size:267.803px;font-family:sans-serif;-inkscape-font-specification:sans-serif;opacity:1;fill:#d40000;fill-rule:evenodd;stroke:none;stroke-width:6.69506;-inkscape-stroke:none;stop-color:#000000"
   x="559.23846"
   y="295.87381"
   id="text615"
   transform="scale(0.99197867,1.0080862)"><tspan
     sodipodi:role="line"
     id="tspan613"
     x="559.23846"
     y="295.87381"
     style="font-weight:bold;fill:#030525;fill-opacity:1;stroke-width:6.69506">2023</tspan></text><text
   xml:space="preserve"
   style="font-size:80.3178px;font-family:sans-serif;-inkscape-font-specification:sans-serif;opacity:0.65;fill:#d40000;fill-rule:evenodd;stroke:none;stroke-width:2.00794;-inkscape-stroke:none;stop-color:#000000"
   x="613.46057"
   y="423.69687"
   id="text615-3"
   transform="scale(0.99197867,1.0080862)"><tspan
     sodipodi:role="line"
     id="tspan613-6"
     x="613.46057"
     y="423.69687"
     style="font-weight:bold;opacity:1;fill:#030525;fill-opacity:1;stroke-width:2.00794">Release date</tspan></text></svg>
