<?xml version="1.0" encoding="UTF-8" standalone="no"?>
<!-- Created with Inkscape (http://www.inkscape.org/) -->

<svg
   width="261.23605mm"
   height="110.22821mm"
   viewBox="0 0 261.23605 110.22821"
   version="1.1"
   id="SVGRoot"
   sodipodi:docname="Designthinking_1.svg"
   inkscape:version="1.2 (1:1.2+202206011327+fc4e4096c5)"
   xml:space="preserve"
   xmlns:inkscape="http://www.inkscape.org/namespaces/inkscape"
   xmlns:sodipodi="http://sodipodi.sourceforge.net/DTD/sodipodi-0.dtd"
   xmlns:xlink="http://www.w3.org/1999/xlink"
   xmlns="http://www.w3.org/2000/svg"
   xmlns:svg="http://www.w3.org/2000/svg"><sodipodi:namedview
     id="namedview5333"
     pagecolor="#ffffff"
     bordercolor="#000000"
     borderopacity="0.25"
     inkscape:showpageshadow="2"
     inkscape:pageopacity="0.0"
     inkscape:pagecheckerboard="0"
     inkscape:deskcolor="#d1d1d1"
     inkscape:document-units="mm"
     showgrid="false"
     inkscape:zoom="1.0708779"
     inkscape:cx="563.08939"
     inkscape:cy="143.34033"
     inkscape:window-width="1866"
     inkscape:window-height="1016"
     inkscape:window-x="54"
     inkscape:window-y="27"
     inkscape:window-maximized="1"
     inkscape:current-layer="layer1" /><defs
     id="defs5328"><linearGradient
       inkscape:collect="always"
       id="linearGradient32786"><stop
         style="stop-color:#1000ec;stop-opacity:1;"
         offset="0"
         id="stop32782" /><stop
         style="stop-color:#ff6600;stop-opacity:0;"
         offset="1"
         id="stop32784" /></linearGradient><linearGradient
       inkscape:collect="always"
       id="linearGradient32778"><stop
         style="stop-color:#ff6600;stop-opacity:1;"
         offset="0"
         id="stop32774" /><stop
         style="stop-color:#ff6600;stop-opacity:0;"
         offset="1"
         id="stop32776" /></linearGradient><linearGradient
       inkscape:collect="always"
       id="linearGradient32770"><stop
         style="stop-color:#ff6600;stop-opacity:1;"
         offset="0"
         id="stop32766" /><stop
         style="stop-color:#ff6600;stop-opacity:0;"
         offset="1"
         id="stop32768" /></linearGradient><inkscape:path-effect
       effect="bspline"
       id="path-effect9889"
       is_visible="true"
       lpeversion="1"
       weight="33.333333"
       steps="2"
       helper_size="0"
       apply_no_weight="true"
       apply_with_weight="true"
       only_selected="false" /><inkscape:path-effect
       effect="bspline"
       id="path-effect9883"
       is_visible="true"
       lpeversion="1"
       weight="33.333333"
       steps="2"
       helper_size="0"
       apply_no_weight="true"
       apply_with_weight="true"
       only_selected="false" /><inkscape:path-effect
       effect="bspline"
       id="path-effect9877"
       is_visible="true"
       lpeversion="1"
       weight="33.333333"
       steps="2"
       helper_size="0"
       apply_no_weight="true"
       apply_with_weight="true"
       only_selected="false" /><inkscape:path-effect
       effect="bspline"
       id="path-effect9788"
       is_visible="true"
       lpeversion="1"
       weight="33.333333"
       steps="2"
       helper_size="0"
       apply_no_weight="true"
       apply_with_weight="true"
       only_selected="false" /><inkscape:path-effect
       effect="bspline"
       id="path-effect9782"
       is_visible="true"
       lpeversion="1"
       weight="33.333333"
       steps="2"
       helper_size="0"
       apply_no_weight="true"
       apply_with_weight="true"
       only_selected="false" /><inkscape:path-effect
       effect="bspline"
       id="path-effect9668"
       is_visible="true"
       lpeversion="1"
       weight="33.333333"
       steps="2"
       helper_size="0"
       apply_no_weight="true"
       apply_with_weight="true"
       only_selected="false" /><linearGradient
       inkscape:collect="always"
       xlink:href="#linearGradient32786"
       id="linearGradient32764"
       x1="19.575836"
       y1="53.60754"
       x2="217.95364"
       y2="53.60754"
       gradientUnits="userSpaceOnUse" /><linearGradient
       inkscape:collect="always"
       xlink:href="#linearGradient32770"
       id="linearGradient32772"
       x1="-26.642853"
       y1="28.046206"
       x2="-25.455776"
       y2="28.046206"
       gradientUnits="userSpaceOnUse" /><linearGradient
       inkscape:collect="always"
       xlink:href="#linearGradient32778"
       id="linearGradient32780"
       x1="-37.060812"
       y1="28.112337"
       x2="-35.873735"
       y2="28.112337"
       gradientUnits="userSpaceOnUse" /></defs><g
     inkscape:label="Layer 1"
     inkscape:groupmode="layer"
     id="layer1"><path
       sodipodi:type="star"
       style="fill:#000000;fill-rule:evenodd;stroke:#550000;stroke-width:1.05833;stroke-dasharray:none"
       id="path5512-3"
       inkscape:flatsided="false"
       sodipodi:sides="5"
       sodipodi:cx="37.172707"
       sodipodi:cy="23.927839"
       sodipodi:r1="39.417042"
       sodipodi:r2="39.417042"
       sodipodi:arg1="1.0386179"
       sodipodi:arg2="1.6669365"
       inkscape:rounded="5"
       inkscape:randomized="-2.0816682e-17"
       d="M 57.173375,57.893652 C -47.786775,119.69912 154.63187,74.855206 33.38898,63.162857 -87.853879,51.47051 102.26478,134.1697 11.049845,53.445619 -80.165113,-27.278477 25.034779,151.37556 -1.3112481,32.453589 -27.657269,-86.468357 -47.558973,119.90069 1.0272221,8.2050172 49.613427,-103.49068 -87.788105,51.767495 17.172041,-10.037975 122.13216,-71.843432 -80.286429,-26.999534 40.95643,-15.307178 162.19931,-3.6148204 -27.919394,-86.314028 63.29557,-5.5899382 154.51051,75.134134 49.310648,-103.51986 75.656661,15.402087 102.00268,134.32406 121.90439,-72.045038 73.31819,39.650664 24.732003,151.34634 162.1335,-3.9117978 57.173375,57.893652 Z"
       inkscape:transform-center-x="-0.30710164"
       inkscape:transform-center-y="-0.69198207"
       transform="matrix(0.26265153,0,0,0.26265153,-92.574059,-56.599978)" /><rect
       style="fill:#ff5900;fill-opacity:1;stroke:#ff6600;stroke-width:0;stroke-linecap:round;paint-order:markers stroke fill"
       id="rect57"
       width="1.2351229"
       height="4.4109478"
       x="-10.188507"
       y="33.762672"
       ry="0.5846737"
       transform="matrix(0.83313119,0.55307542,-0.58630837,0.81008795,0,0)" /><rect
       style="fill:#00d7ff;fill-opacity:1;stroke:#ff6600;stroke-width:0;stroke-linecap:round;paint-order:markers stroke fill"
       id="rect57-2"
       width="1.2351229"
       height="4.4109478"
       x="38.480125"
       y="8.6447716"
       ry="0.5846737"
       transform="matrix(-0.44676002,0.89465383,-0.87585884,-0.4825674,0,0)" /><rect
       style="fill:#01064a;fill-opacity:1;stroke:#ff6600;stroke-width:0;stroke-linecap:round;paint-order:markers stroke fill"
       id="rect57-2-2"
       width="1.2351229"
       height="4.4109478"
       x="39.539238"
       y="17.463436"
       ry="0.5846737"
       transform="matrix(-0.44676002,0.89465383,-0.87585884,-0.4825674,0,0)" /><rect
       style="fill:#00d7ff;fill-opacity:1;stroke:#ff6600;stroke-width:0;stroke-linecap:round;paint-order:markers stroke fill"
       id="rect57-2-9"
       width="1.2351229"
       height="4.4109478"
       x="-10.829247"
       y="33.7966"
       ry="0.5846737"
       transform="matrix(-0.44676002,-0.89465383,-0.87585884,0.4825674,0,0)" /><rect
       style="fill:#01064a;fill-opacity:1;stroke:#ff6600;stroke-width:0;stroke-linecap:round;paint-order:markers stroke fill"
       id="rect57-2-9-1"
       width="1.2351229"
       height="4.4109478"
       x="-9.6395788"
       y="42.548668"
       ry="0.5846737"
       transform="matrix(-0.44676002,-0.89465383,-0.87585884,0.4825674,0,0)" /><rect
       style="fill:#008000;fill-opacity:1;stroke:#ff6600;stroke-width:0;stroke-linecap:round;paint-order:markers stroke fill"
       id="rect57-56"
       width="1.2351229"
       height="4.4109478"
       x="-8.4768076"
       y="42.920071"
       ry="0.5846737"
       transform="matrix(0.83313119,0.55307542,-0.58630837,0.81008795,0,0)" /><rect
       style="fill:#ff6600;fill-opacity:1;stroke:#ff6600;stroke-width:0;stroke-linecap:round;paint-order:markers stroke fill"
       id="rect57-5"
       width="1.2351229"
       height="4.4109478"
       x="39.867039"
       y="-0.41201809"
       ry="0.5846737"
       transform="matrix(-0.83313119,0.55307542,0.58630837,0.81008795,0,0)" /><rect
       style="fill:#008000;fill-opacity:1;stroke:#ff6600;stroke-width:0;stroke-linecap:round;paint-order:markers stroke fill"
       id="rect57-5-3"
       width="1.2351229"
       height="4.4109478"
       x="42.110256"
       y="8.3825064"
       ry="0.5846737"
       transform="matrix(-0.83313119,0.55307542,0.58630837,0.81008795,0,0)" /><ellipse
       style="fill:#ff5b00;fill-opacity:1;stroke:#ff6600;stroke-width:0;stroke-linecap:round;paint-order:markers stroke fill"
       id="path183"
       cx="-30.86438"
       cy="22.914278"
       rx="0.59353781"
       ry="0.629017" /><ellipse
       style="fill:#01064a;fill-opacity:1;stroke:url(#linearGradient32780);stroke-width:0;stroke-linecap:round;paint-order:markers stroke fill"
       id="path183-7"
       cx="-36.467274"
       cy="28.112337"
       rx="0.59353781"
       ry="0.629017" /><ellipse
       style="fill:#008000;fill-opacity:1;stroke:#ff6600;stroke-width:0;stroke-linecap:round;paint-order:markers stroke fill"
       id="path183-7-0"
       cx="-31.208685"
       cy="33.20557"
       rx="0.59353781"
       ry="0.629017" /><ellipse
       style="fill:#00d7ff;fill-opacity:1;stroke:url(#linearGradient32772);stroke-width:0;stroke-linecap:round;paint-order:markers stroke fill"
       id="path183-7-0-9"
       cx="-26.049314"
       cy="28.046206"
       rx="0.59353781"
       ry="0.629017" /><path
       sodipodi:type="star"
       style="fill:#01064a;fill-rule:evenodd;stroke:#008000;stroke-width:1.05833;stroke-dasharray:none"
       id="path5512"
       inkscape:flatsided="false"
       sodipodi:sides="5"
       sodipodi:cx="37.172707"
       sodipodi:cy="23.927839"
       sodipodi:r1="39.417042"
       sodipodi:r2="39.417042"
       sodipodi:arg1="1.0386179"
       sodipodi:arg2="1.6669365"
       inkscape:rounded="5"
       inkscape:randomized="-2.0816682e-17"
       d="M 57.173375,57.893652 C -47.786775,119.69912 154.63187,74.855206 33.38898,63.162857 -87.853879,51.47051 102.26478,134.1697 11.049845,53.445619 -80.165113,-27.278477 25.034779,151.37556 -1.3112481,32.453589 -27.657269,-86.468357 -47.558973,119.90069 1.0272221,8.2050172 49.613427,-103.49068 -87.788105,51.767495 17.172041,-10.037975 122.13216,-71.843432 -80.286429,-26.999534 40.95643,-15.307178 162.19931,-3.6148204 -27.919394,-86.314028 63.29557,-5.5899382 154.51051,75.134134 49.310648,-103.51986 75.656661,15.402087 102.00268,134.32406 121.90439,-72.045038 73.31819,39.650664 24.732003,151.34634 162.1335,-3.9117978 57.173375,57.893652 Z"
       inkscape:transform-center-x="-0.081938188"
       inkscape:transform-center-y="-0.18462914"
       transform="matrix(0.13168526,0,0,0.13168526,9.9609891,44.272521)" /><g
       id="g8912"
       transform="matrix(0.20777495,0,0,0.20777495,68.440876,-19.365129)"
       style="fill:#ff5b00;stroke:#ff5b00"><g
         id="g8852"
         style="fill:#ff5b00;stroke:#ff5b00">
	<g
   id="g8850"
   style="fill:#ff5b00;stroke:#ff5b00">
		<path
   d="m 20.708,11.021 c -0.091,0.147 -0.185,0.295 -0.256,0.456 -0.089,0.2 -0.166,0.411 -0.224,0.63 -0.572,2.163 0.717,4.377 2.879,4.948 2.158,0.571 4.375,-0.715 4.947,-2.879 0.113,-0.431 0.135,-0.863 0.108,-1.286 l 1.085,-0.887 -1.291,-0.878 0.663,-1.38 -1.87,0.038 L 26.394,7.895 24.499,9.05 23.702,7.411 22.695,9.03 21.008,7.937 21.293,9.675 19.85,9.697 Z"
   id="path8838"
   style="fill:#ff5b00;stroke:#ff5b00" />
		<path
   d="m 27.005,23.696 -1.348,-5.123 c -0.327,0.457 -0.854,0.946 -1.653,0.994 -1.523,0.088 -2.102,-1.791 -2.102,-1.791 l -2.445,0.576 -1.96,5.302 H 12.13 v 1.93 h 1.158 v 10.983 h 0.943 V 25.583 h 6.231 l 0.015,1.359 h -1.531 v 0.661 h 1.313 v 8.457 h 2.897 v -8.457 h 1.916 v 8.457 h 2.898 v -8.457 h 1.141 v -0.661 h -1.34 l 0.002,-1.359 h 7.05 v 10.983 h 0.94 V 25.583 h 1.447 v -1.93 z m -7.159,-0.916 0.568,-1.579 0.018,1.579 z"
   id="path8840"
   style="fill:#ff5b00;stroke:#ff5b00" />
		<path
   d="m 25.698,17.298 1.581,5.96 0.494,-10e-4 2.033,-0.004 -2.162,-7.375 c -0.501,0.636 -1.171,1.13 -1.946,1.42 z"
   id="path8842"
   style="fill:#ff5b00;stroke:#ff5b00" />
		<path
   d="m 13.657,9.026 c 1.032,-0.386 1.711,-1.308 1.711,-2.354 0,-0.738 -0.336,-1.419 -0.927,-1.902 0.012,-0.099 0.019,-0.199 0.019,-0.298 0,-1.401 -1.23,-2.541 -2.742,-2.541 -0.245,0 -0.486,0.03 -0.721,0.091 C 10.532,1.186 9.591,0.644 8.561,0.644 7.95,0.644 7.363,0.832 6.884,1.176 6.452,0.931 5.962,0.801 5.452,0.801 4.064,0.801 2.914,1.761 2.734,3 1.227,3.006 0,4.142 0,5.541 0,6.707 0.863,7.714 2.056,7.998 2.054,8.03 2.053,8.063 2.053,8.095 c 0,1.399 1.23,2.541 2.742,2.541 0.386,0 0.77,-0.077 1.122,-0.225 0.518,0.575 1.284,0.912 2.103,0.912 0.605,0 1.187,-0.186 1.666,-0.526 0.394,0.192 0.831,0.294 1.278,0.294 1.332,0 2.451,-0.873 2.693,-2.065 z m -4.04,0.95 -0.185,0.157 c -0.387,0.328 -0.887,0.509 -1.413,0.509 -0.701,0 -1.347,-0.319 -1.73,-0.851 L 6.114,9.547 5.851,9.689 C 5.529,9.864 5.165,9.955 4.794,9.955 3.657,9.955 2.732,9.121 2.732,8.096 c 0,-0.097 0.011,-0.2 0.032,-0.312 L 2.83,7.426 2.47,7.383 C 1.449,7.262 0.68,6.47 0.68,5.542 c 0,-1.025 0.924,-1.859 2.061,-1.859 0.091,0 0.181,0.006 0.27,0.017 L 3.392,3.746 3.39,3.322 C 3.39,2.315 4.315,1.48 5.452,1.48 5.91,1.48 6.346,1.615 6.71,1.872 l 0.219,0.152 0.2,-0.175 C 7.518,1.51 8.025,1.324 8.561,1.324 c 0.868,0 1.646,0.495 1.94,1.235 l 0.122,0.31 0.312,-0.116 c 0.25,-0.093 0.514,-0.14 0.783,-0.14 1.136,0 2.061,0.834 2.061,1.859 0,0.125 -0.013,0.249 -0.041,0.37 l -0.051,0.225 0.189,0.13 c 0.515,0.355 0.811,0.893 0.811,1.475 0,0.81 -0.575,1.521 -1.43,1.77 l -0.22,0.063 -0.024,0.227 c -0.102,0.956 -0.984,1.678 -2.051,1.678 -0.405,0 -0.798,-0.108 -1.137,-0.31 z"
   id="path8844"
   style="fill:#ff5b00;stroke:#ff5b00" />
		<path
   d="m 14.824,13.281 c 0,-0.925 -0.9,-1.679 -2.005,-1.679 -1.107,0 -2.006,0.753 -2.006,1.679 0,0.927 0.899,1.68 2.006,1.68 1.105,0 2.005,-0.753 2.005,-1.68 z m -3.331,0 c 0,-0.55 0.594,-0.998 1.326,-0.998 0.729,0 1.325,0.448 1.325,0.998 0,0.553 -0.595,0.999 -1.325,0.999 -0.732,0 -1.326,-0.446 -1.326,-0.999 z"
   id="path8846"
   style="fill:#ff5b00;stroke:#ff5b00" />
		<path
   d="m 14.106,16.327 c 0,0.695 0.667,1.261 1.486,1.261 0.819,0 1.487,-0.565 1.487,-1.261 0,-0.698 -0.668,-1.264 -1.487,-1.264 -0.819,0 -1.486,0.566 -1.486,1.264 z m 1.486,-0.583 c 0.438,0 0.806,0.266 0.806,0.583 0,0.314 -0.368,0.581 -0.806,0.581 -0.438,0 -0.807,-0.266 -0.807,-0.581 10e-4,-0.317 0.37,-0.583 0.807,-0.583 z"
   id="path8848"
   style="fill:#ff5b00;stroke:#ff5b00" />
	</g>
</g><g
         id="g8854"
         style="fill:#ff5b00;stroke:#ff5b00">
</g><g
         id="g8856"
         style="fill:#ff5b00;stroke:#ff5b00">
</g><g
         id="g8858"
         style="fill:#ff5b00;stroke:#ff5b00">
</g><g
         id="g8860"
         style="fill:#ff5b00;stroke:#ff5b00">
</g><g
         id="g8862"
         style="fill:#ff5b00;stroke:#ff5b00">
</g><g
         id="g8864"
         style="fill:#ff5b00;stroke:#ff5b00">
</g><g
         id="g8866"
         style="fill:#ff5b00;stroke:#ff5b00">
</g><g
         id="g8868"
         style="fill:#ff5b00;stroke:#ff5b00">
</g><g
         id="g8870"
         style="fill:#ff5b00;stroke:#ff5b00">
</g><g
         id="g8872"
         style="fill:#ff5b00;stroke:#ff5b00">
</g><g
         id="g8874"
         style="fill:#ff5b00;stroke:#ff5b00">
</g><g
         id="g8876"
         style="fill:#ff5b00;stroke:#ff5b00">
</g><g
         id="g8878"
         style="fill:#ff5b00;stroke:#ff5b00">
</g><g
         id="g8880"
         style="fill:#ff5b00;stroke:#ff5b00">
</g><g
         id="g8882"
         style="fill:#ff5b00;stroke:#ff5b00">
</g></g><path
       sodipodi:type="star"
       style="fill:#01064a;fill-rule:evenodd;stroke:#008000;stroke-width:1.05833;stroke-dasharray:none"
       id="path5512-7"
       inkscape:flatsided="false"
       sodipodi:sides="5"
       sodipodi:cx="37.172707"
       sodipodi:cy="23.927839"
       sodipodi:r1="39.417042"
       sodipodi:r2="39.417042"
       sodipodi:arg1="1.0386179"
       sodipodi:arg2="1.6669365"
       inkscape:rounded="5"
       inkscape:randomized="-2.0816682e-17"
       d="M 57.173375,57.893652 C -47.786775,119.69912 154.63187,74.855206 33.38898,63.162857 -87.853879,51.47051 102.26478,134.1697 11.049845,53.445619 -80.165113,-27.278477 25.034779,151.37556 -1.3112481,32.453589 -27.657269,-86.468357 -47.558973,119.90069 1.0272221,8.2050172 49.613427,-103.49068 -87.788105,51.767495 17.172041,-10.037975 122.13216,-71.843432 -80.286429,-26.999534 40.95643,-15.307178 162.19931,-3.6148204 -27.919394,-86.314028 63.29557,-5.5899382 154.51051,75.134134 49.310648,-103.51986 75.656661,15.402087 102.00268,134.32406 121.90439,-72.045038 73.31819,39.650664 24.732003,151.34634 162.1335,-3.9117978 57.173375,57.893652 Z"
       inkscape:transform-center-x="-0.081938188"
       inkscape:transform-center-y="-0.18462914"
       transform="matrix(0.13168526,0,0,0.13168526,38.964261,80.152506)" /><path
       sodipodi:type="star"
       style="fill:#01064a;fill-rule:evenodd;stroke:#008000;stroke-width:1.05833;stroke-dasharray:none"
       id="path5512-7-7"
       inkscape:flatsided="false"
       sodipodi:sides="5"
       sodipodi:cx="37.172707"
       sodipodi:cy="23.927839"
       sodipodi:r1="39.417042"
       sodipodi:r2="39.417042"
       sodipodi:arg1="1.0386179"
       sodipodi:arg2="1.6669365"
       inkscape:rounded="5"
       inkscape:randomized="-2.0816682e-17"
       d="M 57.173375,57.893652 C -47.786775,119.69912 154.63187,74.855206 33.38898,63.162857 -87.853879,51.47051 102.26478,134.1697 11.049845,53.445619 -80.165113,-27.278477 25.034779,151.37556 -1.3112481,32.453589 -27.657269,-86.468357 -47.558973,119.90069 1.0272221,8.2050172 49.613427,-103.49068 -87.788105,51.767495 17.172041,-10.037975 122.13216,-71.843432 -80.286429,-26.999534 40.95643,-15.307178 162.19931,-3.6148204 -27.919394,-86.314028 63.29557,-5.5899382 154.51051,75.134134 49.310648,-103.51986 75.656661,15.402087 102.00268,134.32406 121.90439,-72.045038 73.31819,39.650664 24.732003,151.34634 162.1335,-3.9117978 57.173375,57.893652 Z"
       inkscape:transform-center-x="-0.081938188"
       inkscape:transform-center-y="-0.18462914"
       transform="matrix(0.13168526,0,0,0.13168526,88.747253,20.084938)" /><g
       id="g8912-5-5"
       transform="matrix(0.20777495,0,0,0.20777495,-42.180151,-6.7302935)"
       style="fill:#ff5b00"><g
         id="g8852-3-9"
         style="fill:#ff5b00">
	<g
   id="g8850-5-2"
   style="fill:#ff5b00">
		<path
   d="m 20.708,11.021 c -0.091,0.147 -0.185,0.295 -0.256,0.456 -0.089,0.2 -0.166,0.411 -0.224,0.63 -0.572,2.163 0.717,4.377 2.879,4.948 2.158,0.571 4.375,-0.715 4.947,-2.879 0.113,-0.431 0.135,-0.863 0.108,-1.286 l 1.085,-0.887 -1.291,-0.878 0.663,-1.38 -1.87,0.038 L 26.394,7.895 24.499,9.05 23.702,7.411 22.695,9.03 21.008,7.937 21.293,9.675 19.85,9.697 Z"
   id="path8838-6-2"
   style="fill:#ff5b00" />
		<path
   d="m 27.005,23.696 -1.348,-5.123 c -0.327,0.457 -0.854,0.946 -1.653,0.994 -1.523,0.088 -2.102,-1.791 -2.102,-1.791 l -2.445,0.576 -1.96,5.302 H 12.13 v 1.93 h 1.158 v 10.983 h 0.943 V 25.583 h 6.231 l 0.015,1.359 h -1.531 v 0.661 h 1.313 v 8.457 h 2.897 v -8.457 h 1.916 v 8.457 h 2.898 v -8.457 h 1.141 v -0.661 h -1.34 l 0.002,-1.359 h 7.05 v 10.983 h 0.94 V 25.583 h 1.447 v -1.93 z m -7.159,-0.916 0.568,-1.579 0.018,1.579 z"
   id="path8840-2-8"
   style="fill:#ff5b00" />
		<path
   d="m 25.698,17.298 1.581,5.96 0.494,-10e-4 2.033,-0.004 -2.162,-7.375 c -0.501,0.636 -1.171,1.13 -1.946,1.42 z"
   id="path8842-9-9"
   style="fill:#ff5b00" />
		<path
   d="m 13.657,9.026 c 1.032,-0.386 1.711,-1.308 1.711,-2.354 0,-0.738 -0.336,-1.419 -0.927,-1.902 0.012,-0.099 0.019,-0.199 0.019,-0.298 0,-1.401 -1.23,-2.541 -2.742,-2.541 -0.245,0 -0.486,0.03 -0.721,0.091 C 10.532,1.186 9.591,0.644 8.561,0.644 7.95,0.644 7.363,0.832 6.884,1.176 6.452,0.931 5.962,0.801 5.452,0.801 4.064,0.801 2.914,1.761 2.734,3 1.227,3.006 0,4.142 0,5.541 0,6.707 0.863,7.714 2.056,7.998 2.054,8.03 2.053,8.063 2.053,8.095 c 0,1.399 1.23,2.541 2.742,2.541 0.386,0 0.77,-0.077 1.122,-0.225 0.518,0.575 1.284,0.912 2.103,0.912 0.605,0 1.187,-0.186 1.666,-0.526 0.394,0.192 0.831,0.294 1.278,0.294 1.332,0 2.451,-0.873 2.693,-2.065 z m -4.04,0.95 -0.185,0.157 c -0.387,0.328 -0.887,0.509 -1.413,0.509 -0.701,0 -1.347,-0.319 -1.73,-0.851 L 6.114,9.547 5.851,9.689 C 5.529,9.864 5.165,9.955 4.794,9.955 3.657,9.955 2.732,9.121 2.732,8.096 c 0,-0.097 0.011,-0.2 0.032,-0.312 L 2.83,7.426 2.47,7.383 C 1.449,7.262 0.68,6.47 0.68,5.542 c 0,-1.025 0.924,-1.859 2.061,-1.859 0.091,0 0.181,0.006 0.27,0.017 L 3.392,3.746 3.39,3.322 C 3.39,2.315 4.315,1.48 5.452,1.48 5.91,1.48 6.346,1.615 6.71,1.872 l 0.219,0.152 0.2,-0.175 C 7.518,1.51 8.025,1.324 8.561,1.324 c 0.868,0 1.646,0.495 1.94,1.235 l 0.122,0.31 0.312,-0.116 c 0.25,-0.093 0.514,-0.14 0.783,-0.14 1.136,0 2.061,0.834 2.061,1.859 0,0.125 -0.013,0.249 -0.041,0.37 l -0.051,0.225 0.189,0.13 c 0.515,0.355 0.811,0.893 0.811,1.475 0,0.81 -0.575,1.521 -1.43,1.77 l -0.22,0.063 -0.024,0.227 c -0.102,0.956 -0.984,1.678 -2.051,1.678 -0.405,0 -0.798,-0.108 -1.137,-0.31 z"
   id="path8844-1-7"
   style="fill:#ff5b00" />
		<path
   d="m 14.824,13.281 c 0,-0.925 -0.9,-1.679 -2.005,-1.679 -1.107,0 -2.006,0.753 -2.006,1.679 0,0.927 0.899,1.68 2.006,1.68 1.105,0 2.005,-0.753 2.005,-1.68 z m -3.331,0 c 0,-0.55 0.594,-0.998 1.326,-0.998 0.729,0 1.325,0.448 1.325,0.998 0,0.553 -0.595,0.999 -1.325,0.999 -0.732,0 -1.326,-0.446 -1.326,-0.999 z"
   id="path8846-2-3"
   style="fill:#ff5b00" />
		<path
   d="m 14.106,16.327 c 0,0.695 0.667,1.261 1.486,1.261 0.819,0 1.487,-0.565 1.487,-1.261 0,-0.698 -0.668,-1.264 -1.487,-1.264 -0.819,0 -1.486,0.566 -1.486,1.264 z m 1.486,-0.583 c 0.438,0 0.806,0.266 0.806,0.583 0,0.314 -0.368,0.581 -0.806,0.581 -0.438,0 -0.807,-0.266 -0.807,-0.581 10e-4,-0.317 0.37,-0.583 0.807,-0.583 z"
   id="path8848-7-6"
   style="fill:#ff5b00" />
	</g>
</g><g
         id="g8854-0-1"
         style="fill:#ff5b00">
</g><g
         id="g8856-9-2"
         style="fill:#ff5b00">
</g><g
         id="g8858-3-9"
         style="fill:#ff5b00">
</g><g
         id="g8860-6-3"
         style="fill:#ff5b00">
</g><g
         id="g8862-0-1"
         style="fill:#ff5b00">
</g><g
         id="g8864-6-9"
         style="fill:#ff5b00">
</g><g
         id="g8866-2-4"
         style="fill:#ff5b00">
</g><g
         id="g8868-6-7"
         style="fill:#ff5b00">
</g><g
         id="g8870-1-8"
         style="fill:#ff5b00">
</g><g
         id="g8872-8-4"
         style="fill:#ff5b00">
</g><g
         id="g8874-7-5"
         style="fill:#ff5b00">
</g><g
         id="g8876-9-0"
         style="fill:#ff5b00">
</g><g
         id="g8878-2-3"
         style="fill:#ff5b00">
</g><g
         id="g8880-0-6"
         style="fill:#ff5b00">
</g><g
         id="g8882-2-1"
         style="fill:#ff5b00">
</g></g><path
       sodipodi:type="star"
       style="fill:#01064a;fill-rule:evenodd;stroke:#008000;stroke-width:1.05833;stroke-dasharray:none"
       id="path5512-7-7-6"
       inkscape:flatsided="false"
       sodipodi:sides="5"
       sodipodi:cx="37.172707"
       sodipodi:cy="23.927839"
       sodipodi:r1="39.417042"
       sodipodi:r2="39.417042"
       sodipodi:arg1="1.0386179"
       sodipodi:arg2="1.6669365"
       inkscape:rounded="5"
       inkscape:randomized="-2.0816682e-17"
       d="M 57.173375,57.893652 C -47.786775,119.69912 154.63187,74.855206 33.38898,63.162857 -87.853879,51.47051 102.26478,134.1697 11.049845,53.445619 -80.165113,-27.278477 25.034779,151.37556 -1.3112481,32.453589 -27.657269,-86.468357 -47.558973,119.90069 1.0272221,8.2050172 49.613427,-103.49068 -87.788105,51.767495 17.172041,-10.037975 122.13216,-71.843432 -80.286429,-26.999534 40.95643,-15.307178 162.19931,-3.6148204 -27.919394,-86.314028 63.29557,-5.5899382 154.51051,75.134134 49.310648,-103.51986 75.656661,15.402087 102.00268,134.32406 121.90439,-72.045038 73.31819,39.650664 24.732003,151.34634 162.1335,-3.9117978 57.173375,57.893652 Z"
       inkscape:transform-center-x="-0.081938188"
       inkscape:transform-center-y="-0.18462914"
       transform="matrix(0.13168526,0,0,0.13168526,136.5709,82.082172)" /><path
       sodipodi:type="star"
       style="fill:#01064a;fill-rule:evenodd;stroke:#008000;stroke-width:1.05833;stroke-dasharray:none"
       id="path5512-7-7-6-7"
       inkscape:flatsided="false"
       sodipodi:sides="5"
       sodipodi:cx="37.172707"
       sodipodi:cy="23.927839"
       sodipodi:r1="39.417042"
       sodipodi:r2="39.417042"
       sodipodi:arg1="1.0386179"
       sodipodi:arg2="1.6669365"
       inkscape:rounded="5"
       inkscape:randomized="-2.0816682e-17"
       d="M 57.173375,57.893652 C -47.786775,119.69912 154.63187,74.855206 33.38898,63.162857 -87.853879,51.47051 102.26478,134.1697 11.049845,53.445619 -80.165113,-27.278477 25.034779,151.37556 -1.3112481,32.453589 -27.657269,-86.468357 -47.558973,119.90069 1.0272221,8.2050172 49.613427,-103.49068 -87.788105,51.767495 17.172041,-10.037975 122.13216,-71.843432 -80.286429,-26.999534 40.95643,-15.307178 162.19931,-3.6148204 -27.919394,-86.314028 63.29557,-5.5899382 154.51051,75.134134 49.310648,-103.51986 75.656661,15.402087 102.00268,134.32406 121.90439,-72.045038 73.31819,39.650664 24.732003,151.34634 162.1335,-3.9117978 57.173375,57.893652 Z"
       inkscape:transform-center-x="-0.081938188"
       inkscape:transform-center-y="-0.18462914"
       transform="matrix(0.13168526,0,0,0.13168526,185.86478,20.721194)" /><text
       xml:space="preserve"
       style="font-style:italic;font-size:3.42954px;font-family:sans-serif;-inkscape-font-specification:'sans-serif, Italic';fill:#01064a;fill-rule:evenodd;stroke:none;stroke-width:0.685906"
       x="26.075811"
       y="42.996014"
       id="text9373"><tspan
         sodipodi:role="line"
         style="fill:#01064a;stroke-width:0.685906"
         x="26.075811"
         y="42.996014"
         id="tspan28940">Design thinking on </tspan><tspan
         sodipodi:role="line"
         style="fill:#01064a;stroke-width:0.685906"
         x="26.075811"
         y="47.28294"
         id="tspan28944">a system.</tspan></text><text
       xml:space="preserve"
       style="font-style:italic;font-size:3.42954px;font-family:sans-serif;-inkscape-font-specification:'sans-serif, Italic';fill:#01064a;fill-rule:evenodd;stroke:none;stroke-width:0.685906"
       x="157.43037"
       y="78.166138"
       id="text9373-2"><tspan
         sodipodi:role="line"
         style="fill:#01064a;stroke-width:0.685906"
         x="157.43037"
         y="78.166138"
         id="tspan23446">Implement the system </tspan><tspan
         sodipodi:role="line"
         style="fill:#01064a;stroke-width:0.685906"
         x="157.43037"
         y="82.453064"
         id="tspan26868">into bigger system.</tspan></text><text
       xml:space="preserve"
       style="font-style:italic;font-size:3.42954px;font-family:sans-serif;-inkscape-font-specification:'sans-serif, Italic';fill:#01064a;fill-rule:evenodd;stroke:none;stroke-width:0.685906"
       x="203.91411"
       y="19.400543"
       id="text9373-2-6"><tspan
         sodipodi:role="line"
         style="fill:#01064a;stroke-width:0.685906"
         x="203.91411"
         y="19.400543"
         id="tspan26868-0">Small changes to make it</tspan><tspan
         sodipodi:role="line"
         style="fill:#01064a;stroke-width:0.685906"
         x="203.91411"
         y="23.687468"
         id="tspan27742">more reliable.</tspan></text><text
       xml:space="preserve"
       style="font-style:italic;font-size:3.42954px;font-family:sans-serif;-inkscape-font-specification:'sans-serif, Italic';fill:#01064a;fill-rule:evenodd;stroke:none;stroke-width:0.685906"
       x="54.278507"
       y="78.254387"
       id="text9373-1"><tspan
         sodipodi:role="line"
         style="fill:#01064a;stroke-width:0.685906"
         x="54.278507"
         y="78.254387"
         id="tspan16194">How to design dynamic system ? </tspan></text><text
       xml:space="preserve"
       style="font-style:italic;font-size:3.42954px;font-family:sans-serif;-inkscape-font-specification:'sans-serif, Italic';fill:#01064a;fill-rule:evenodd;stroke:none;stroke-width:0.685906"
       x="105.13017"
       y="18.991762"
       id="text9373-1-2"><tspan
         sodipodi:role="line"
         style="fill:#01064a;stroke-width:0.685906"
         x="105.13017"
         y="18.991762"
         id="tspan16194-7">How designed dynamic system </tspan><tspan
         sodipodi:role="line"
         style="fill:#01064a;stroke-width:0.685906"
         x="105.13017"
         y="23.278687"
         id="tspan20492">works on realtime world ? </tspan></text><g
       id="g32729"
       style="stroke:url(#linearGradient32764)"><path
         style="fill:none;fill-rule:evenodd;stroke:url(#linearGradient32764);stroke-width:2.91041667;stroke-opacity:1;stroke-dasharray:2.9104166, 2.9104166;stroke-dashoffset:5.52979154"
         d="M 20.509832,53.802613 C 28.31314,63.219479 36.115995,72.635799 44.363018,72.355164 52.610042,72.07453 61.300831,62.097302 69.991782,52.119887"
         id="path9666"
         inkscape:path-effect="#path-effect9668"
         inkscape:original-d="m 20.509832,53.802613 c 7.803382,9.416805 15.606236,18.833125 23.409061,28.249558 8.69143,-9.977396 17.382219,-19.954624 26.072889,-29.932284"
         sodipodi:nodetypes="ccc" /><path
         style="fill:none;fill-rule:evenodd;stroke:url(#linearGradient32764);stroke-width:2.91041667;stroke-opacity:1;stroke-dasharray:2.9104166, 2.9104166;stroke-dashoffset:0"
         d="m 69.493173,52.804419 c 7.803308,-9.416866 15.606163,-18.833186 23.853188,-18.55255 8.247029,0.280635 16.937819,10.257862 25.628769,20.235276"
         id="path9873"
         inkscape:path-effect="#path-effect9877"
         inkscape:original-d="m 69.493173,52.804419 c 7.803382,-9.416805 15.606236,-18.833125 23.409061,-28.249558 8.691436,9.977396 17.382226,19.954624 26.072896,29.932284"
         sodipodi:nodetypes="ccc" /><path
         style="fill:none;fill-rule:evenodd;stroke:url(#linearGradient32764);stroke-width:2.91042;stroke-dasharray:2.91041994, 2.91041994;stroke-opacity:1;stroke-dashoffset:0"
         d="m 118.85576,54.410657 c 7.80331,9.416866 15.60616,18.833183 23.85318,18.55255 8.24703,-0.280633 16.93782,-10.257861 25.62877,-20.235276"
         id="path9879"
         inkscape:path-effect="#path-effect9883"
         inkscape:original-d="m 118.85576,54.410657 c 7.80338,9.416805 15.60623,18.833125 23.40906,28.249558 8.69143,-9.977396 17.38222,-19.954624 26.07289,-29.932284"
         sodipodi:nodetypes="ccc" /><path
         style="fill:none;fill-rule:evenodd;stroke:url(#linearGradient32764);stroke-width:2.91042;stroke-dasharray:2.91042, 2.91042;stroke-dashoffset:0;stroke-opacity:1"
         d="m 167.37497,54.282234 c 7.80331,-9.416866 15.60616,-18.833183 23.85318,-18.55255 8.24703,0.280633 16.93782,10.257861 25.62877,20.235276"
         id="path9885"
         inkscape:path-effect="#path-effect9889"
         inkscape:original-d="m 167.37497,54.282234 c 7.80338,-9.416805 15.60623,-18.833125 23.40906,-28.249558 8.69143,9.977396 17.38222,19.954624 26.07289,29.932284"
         sodipodi:nodetypes="ccc" /></g><g
       id="g11841"
       transform="matrix(0.1004468,0,0,0.1004468,10.362534,41.597099)"
       style="fill:#ff6600"><g
         id="g11763"
         style="fill:#ff6600">
	<g
   id="g11751"
   style="fill:#ff6600">
		<g
   id="g11745"
   style="fill:#ff6600">
			<path
   d="m 64.785,15.134 c -0.22,0 -0.41,-0.127 -0.422,-0.283 -0.012,-0.156 -0.003,-0.462 0.02,-0.68 0,0 0.219,-2.058 1.305,-3.361 0.978,-1.151 1.521,-1.999 1.521,-2.977 0,-1.108 -0.695,-1.848 -2.063,-1.869 -0.782,0 -1.651,0.261 -2.195,0.674 L 62.573,5.643 c -0.078,-0.206 0.022,-0.447 0.223,-0.536 0,0 1.59,-0.707 2.741,-0.707 2.499,0 3.629,1.543 3.629,3.193 0,1.478 -0.825,2.543 -1.868,3.781 -0.956,1.13 -1.304,2.086 -1.238,3.194 l 0.006,0.166 c 0.008,0.22 -0.165,0.4 -0.385,0.4 z"
   id="path11743"
   style="fill:#ff6600" />
		</g>
		<g
   id="g11749"
   style="fill:#ff6600">
			<path
   d="m 65.679,15.534 h -0.894 c -0.432,0 -0.792,-0.286 -0.821,-0.651 -0.014,-0.183 -0.004,-0.514 0.021,-0.754 0.01,-0.089 0.246,-2.194 1.396,-3.574 0.905,-1.066 1.428,-1.852 1.428,-2.721 0,-1.192 -0.908,-1.457 -1.669,-1.469 -0.695,0 -1.48,0.238 -1.948,0.593 L 62.766,7.281 62.198,5.786 C 62.046,5.385 62.241,4.916 62.633,4.742 62.701,4.71 64.314,4 65.537,4 c 2.783,0 4.028,1.805 4.028,3.593 0,1.583 -0.85,2.719 -1.962,4.039 -0.863,1.02 -1.205,1.89 -1.145,2.913 l 0.007,0.174 c 0.007,0.217 -0.07,0.421 -0.22,0.576 -0.149,0.154 -0.35,0.239 -0.566,0.239 z m -0.921,-0.815 0.907,0.015 -0.006,-0.15 c -0.072,-1.238 0.326,-2.278 1.333,-3.468 1.038,-1.233 1.773,-2.208 1.773,-3.523 0,-1.351 -0.848,-2.793 -3.229,-2.793 -1.051,0 -2.564,0.666 -2.579,0.672 l 0.203,0.566 c 0.575,-0.295 1.305,-0.474 1.986,-0.474 1.521,0.024 2.463,0.893 2.463,2.269 0,1.115 -0.592,2.03 -1.616,3.235 -0.994,1.193 -1.21,3.125 -1.212,3.145 -0.016,0.155 -0.026,0.359 -0.023,0.506 z"
   id="path11747"
   style="fill:#ff6600" />
		</g>
	</g>
	<g
   id="g11761"
   style="fill:#ff6600">
		<g
   id="g11755"
   style="fill:#ff6600">
			<path
   d="m 63.907,18.175 c 0,-0.804 0.543,-1.368 1.304,-1.368 0.76,0 1.282,0.564 1.282,1.368 0,0.761 -0.5,1.348 -1.305,1.348 -0.76,-0.001 -1.281,-0.587 -1.281,-1.348 z"
   id="path11753"
   style="fill:#ff6600" />
		</g>
		<g
   id="g11759"
   style="fill:#ff6600">
			<path
   d="m 65.188,19.922 c -0.958,0 -1.681,-0.751 -1.681,-1.748 0,-1.024 0.717,-1.768 1.704,-1.768 0.975,0 1.682,0.744 1.682,1.768 0.001,1.014 -0.716,1.748 -1.705,1.748 z m 0.023,-2.715 c -0.541,0 -0.904,0.389 -0.904,0.968 0,0.558 0.362,0.948 0.881,0.948 0.55,0 0.905,-0.372 0.905,-0.948 10e-4,-0.588 -0.345,-0.968 -0.882,-0.968 z"
   id="path11757"
   style="fill:#ff6600" />
		</g>
	</g>
</g><g
         id="g11773"
         style="fill:#ff6600">
	<path
   d="m 32.204,49.958 14.582,-3.76 c 1.423,-0.367 2.794,-1.71 3.188,-3.125 L 53.637,29.96 c 0.223,-0.798 0.094,-1.615 -0.356,-2.243 -0.449,-0.629 -1.182,-1.016 -2.011,-1.063 l -1.565,-0.083 c -1.512,0 -2.981,1.079 -3.418,2.509 l -2.394,7.829 c -0.219,0.715 -1.08,1.526 -1.808,1.703 l -10.83,2.099 c -1.507,0.366 -2.721,1.866 -2.764,3.414 0,0 -0.137,4.736 0.329,5.216 0.446,0.458 1.064,0.951 3.384,0.617 z"
   id="path11765"
   style="fill:#ff6600" />
	<path
   d="m 41.908,34.769 c 0.443,0 0.878,-0.035 1.308,-0.087 L 45.045,28.7 c 0.597,-1.955 2.601,-3.429 4.661,-3.429 l 1.634,0.084 c 0.444,0.025 0.86,0.139 1.256,0.292 0.09,-0.56 0.149,-1.13 0.149,-1.715 0,-5.975 -4.861,-10.836 -10.836,-10.836 -5.975,0 -10.836,4.861 -10.836,10.836 0,5.975 4.86,10.837 10.835,10.837 z"
   id="path11767"
   style="fill:#ff6600" />
	<path
   d="m 65.797,0 c -5.973,0 -10.833,5.366 -10.833,11.961 0,2.964 0.987,5.675 2.611,7.767 -0.084,0.067 -0.166,0.14 -0.227,0.236 l -2.228,3.499 c -0.296,0.466 -0.159,1.084 0.307,1.381 0.166,0.106 0.352,0.156 0.536,0.156 0.331,0 0.654,-0.164 0.845,-0.463 l 2.122,-3.334 c 1.871,1.697 4.263,2.718 6.867,2.718 5.974,0 10.834,-5.366 10.834,-11.961 C 76.631,5.365 71.771,0 65.797,0 Z m 0,21.922 c -4.871,0 -8.833,-4.468 -8.833,-9.961 0,-5.493 3.962,-9.961 8.833,-9.961 4.871,0 8.834,4.468 8.834,9.961 0,5.493 -3.963,9.961 -8.834,9.961 z"
   id="path11769"
   style="fill:#ff6600" />
	<path
   d="m 55.615,39.353 c -0.603,-0.84 -1.662,-1.502 -2.743,-1.82 l -1.646,5.891 c -0.518,1.855 -2.248,3.552 -4.115,4.034 l -14.583,3.76 c -0.693,0.107 -1.193,0.15 -1.671,0.15 -0.13,0 -0.246,-0.009 -0.366,-0.016 v 19.084 0.503 29.166 c 0,2.757 2.243,5 5,5 h 0.353 c 2.757,0 5,-2.243 5,-5 V 73.938 h 2.126 v 26.166 c 0,2.757 2.243,5 5,5 h 0.352 c 2.757,0 5,-2.243 5,-5 v -29.166 -0.503 -0.12 h 0.314 c 1.449,0 3.141,-0.989 3.853,-2.252 l 6.942,-12.324 c 0.727,-1.289 0.62,-3.24 -0.243,-4.441 z m 1.054,16.186 -3.346,5.451 V 48.58 l 3.281,4.708 c 0.402,0.578 0.434,1.651 0.065,2.251 z"
   id="path11771"
   style="fill:#ff6600" />
</g><g
         id="g11775"
         style="fill:#ff6600">
</g><g
         id="g11777"
         style="fill:#ff6600">
</g><g
         id="g11779"
         style="fill:#ff6600">
</g><g
         id="g11781"
         style="fill:#ff6600">
</g><g
         id="g11783"
         style="fill:#ff6600">
</g><g
         id="g11785"
         style="fill:#ff6600">
</g><g
         id="g11787"
         style="fill:#ff6600">
</g><g
         id="g11789"
         style="fill:#ff6600">
</g><g
         id="g11791"
         style="fill:#ff6600">
</g><g
         id="g11793"
         style="fill:#ff6600">
</g><g
         id="g11795"
         style="fill:#ff6600">
</g><g
         id="g11797"
         style="fill:#ff6600">
</g><g
         id="g11799"
         style="fill:#ff6600">
</g><g
         id="g11801"
         style="fill:#ff6600">
</g><g
         id="g11803"
         style="fill:#ff6600">
</g></g><g
       id="g15727"
       transform="matrix(0.20212933,0,0,0.20212933,40.54659,80.029758)"
       style="stroke:#ff6600"><path
         id="design-thinking-team_1_"
         d="m 26.36,31 h -0.72 v -7 c 0,-0.151 0.096,-0.287 0.238,-0.339 0.852,-0.308 1.762,-1.012 1.762,-2.062 v -4.017 c 0,-1.807 -1.379,-3.223 -3.14,-3.223 -1.761,0 -3.14,1.42 -3.14,3.233 v 4.016 c 0,1.044 0.91,1.745 1.762,2.053 0.143,0.052 0.238,0.188 0.238,0.339 v 7 h -0.72 v -6.755 c -1.24,-0.529 -2,-1.521 -2,-2.637 v -4.016 c 0,-2.216 1.696,-3.953 3.86,-3.953 2.164,0 3.86,1.732 3.86,3.943 V 21.6 c 0,1.12 -0.76,2.116 -2,2.646 z m -17,0 H 8.64 v -7 c 0,-0.151 0.095,-0.287 0.237,-0.339 0.852,-0.308 1.763,-1.012 1.763,-2.062 v -4.017 c 0,-1.807 -1.379,-3.223 -3.14,-3.223 -1.761,0 -3.14,1.42 -3.14,3.233 v 4.016 c 0,1.043 0.911,1.745 1.763,2.053 C 6.265,23.713 6.36,23.849 6.36,24 v 7 H 5.64 v -6.755 c -1.241,-0.529 -2,-1.521 -2,-2.637 v -4.016 c 0,-2.216 1.695,-3.953 3.86,-3.953 2.165,0 3.86,1.732 3.86,3.943 V 21.6 c 0,1.12 -0.759,2.115 -2,2.646 z M 24.201,12.832 c -1.576,0 -3.153,-0.594 -4.354,-1.781 L 16,7.244 12.153,11.051 c -2.402,2.374 -6.308,2.373 -8.708,0 C 2.281,9.899 1.64,8.368 1.64,6.739 c 0,-1.63 0.641,-3.162 1.804,-4.314 2.401,-2.374 6.308,-2.374 8.708,0 L 16,6.231 19.848,2.424 v 0 c 2.401,-2.375 6.308,-2.374 8.707,0 1.165,1.152 1.806,2.685 1.806,4.314 0,1.629 -0.642,3.16 -1.806,4.312 -1.201,1.188 -2.777,1.782 -4.354,1.782 z m -7.689,-6.095 3.841,3.802 c 2.124,2.099 5.575,2.098 7.695,0 1.026,-1.016 1.591,-2.365 1.592,-3.801 0,-1.436 -0.565,-2.786 -1.592,-3.802 -2.121,-2.098 -5.572,-2.099 -7.695,0 z M 7.799,1.363 C 6.405,1.363 5.012,1.887 3.95,2.936 2.925,3.952 2.36,5.303 2.36,6.738 c 0,1.436 0.565,2.785 1.591,3.801 2.121,2.098 5.574,2.098 7.696,0 L 15.488,6.737 11.646,2.936 C 10.586,1.887 9.192,1.363 7.799,1.363 Z M 24.5,9.342 c -1.302,0 -2.36,-1.059 -2.36,-2.36 0,-1.301 1.059,-2.36 2.36,-2.36 1.301,0 2.36,1.059 2.36,2.36 0,1.301 -1.058,2.36 -2.36,2.36 z m 0,-4 c -0.904,0 -1.64,0.736 -1.64,1.64 0,0.904 0.735,1.64 1.64,1.64 0.905,0 1.64,-0.736 1.64,-1.64 0,-0.904 -0.736,-1.64 -1.64,-1.64 z m -17,4 c -1.301,0 -2.36,-1.059 -2.36,-2.36 0,-1.301 1.059,-2.36 2.36,-2.36 1.301,0 2.36,1.059 2.36,2.36 0,1.301 -1.059,2.36 -2.36,2.36 z m 0,-4 c -0.904,0 -1.64,0.736 -1.64,1.64 0,0.904 0.736,1.64 1.64,1.64 0.904,0 1.64,-0.736 1.64,-1.64 0,-0.904 -0.736,-1.64 -1.64,-1.64 z"
         style="stroke:#ff6600" /><rect
         id="_Transparent_Rectangle"
         style="fill:none;stroke:#ff6600"
         width="32"
         height="32"
         x="0"
         y="0" /></g><g
       id="g18255"
       transform="matrix(0.02084263,0,0,0.02084263,-25.191186,-21.470095)"
       style="fill:#ff6600;stroke:#ff6600"><g
         id="g18119"
         style="fill:#ff6600;stroke:#ff6600">
	<g
   id="g18117"
   style="fill:#ff6600;stroke:#ff6600">
		<path
   d="M 363.174,72.046 C 331.709,26.856 280.491,0 225.298,0 133.072,0 57.971,74.717 57.359,166.801 l -42.668,145.071 42.664,0.003 v 50.78 c 0,33.794 27.494,61.289 61.289,61.289 h 90.808 V 512 H 393.244 V 383.918 H 497.31 V 72.046 Z M 377.56,496.317 H 225.134 V 408.261 H 118.643 c -25.147,0 -45.606,-20.459 -45.606,-45.606 V 296.192 L 35.65,296.191 73.037,169.073 v -1.129 c 0,-83.957 68.304,-152.261 152.262,-152.261 46.275,0 89.47,20.826 118.272,56.363 H 257.482 V 383.918 H 377.56 Z M 481.626,368.235 H 273.165 V 87.729 h 208.461 z"
   id="path18115"
   style="fill:#ff6600;stroke:#ff6600" />
	</g>
</g><g
         id="g18125"
         style="fill:#ff6600;stroke:#ff6600">
	<g
   id="g18123"
   style="fill:#ff6600;stroke:#ff6600">
		<polygon
   points="370.934,113.451 359.843,102.36 321.36,140.845 302.89,122.374 291.799,133.463 321.36,163.024 "
   id="polygon18121"
   style="fill:#ff6600;stroke:#ff6600" />
	</g>
</g><g
         id="g18131"
         style="fill:#ff6600;stroke:#ff6600">
	<g
   id="g18129"
   style="fill:#ff6600;stroke:#ff6600">
		<rect
   x="378.58499"
   y="128.61"
   width="79.459999"
   height="15.683"
   id="rect18127"
   style="fill:#ff6600;stroke:#ff6600" />
	</g>
</g><g
         id="g18137"
         style="fill:#ff6600;stroke:#ff6600">
	<g
   id="g18135"
   style="fill:#ff6600;stroke:#ff6600">
		<rect
   x="378.58499"
   y="153.703"
   width="47.049"
   height="15.683"
   id="rect18133"
   style="fill:#ff6600;stroke:#ff6600" />
	</g>
</g><g
         id="g18143"
         style="fill:#ff6600;stroke:#ff6600">
	<g
   id="g18141"
   style="fill:#ff6600;stroke:#ff6600">
		<polygon
   points="370.934,193.502 359.843,182.412 321.36,220.895 302.89,202.424 291.799,213.515 321.36,243.074 "
   id="polygon18139"
   style="fill:#ff6600;stroke:#ff6600" />
	</g>
</g><g
         id="g18149"
         style="fill:#ff6600;stroke:#ff6600">
	<g
   id="g18147"
   style="fill:#ff6600;stroke:#ff6600">
		<rect
   x="378.58499"
   y="210.161"
   width="79.459999"
   height="15.683"
   id="rect18145"
   style="fill:#ff6600;stroke:#ff6600" />
	</g>
</g><g
         id="g18155"
         style="fill:#ff6600;stroke:#ff6600">
	<g
   id="g18153"
   style="fill:#ff6600;stroke:#ff6600">
		<rect
   x="378.58499"
   y="233.16299"
   width="47.049"
   height="15.683"
   id="rect18151"
   style="fill:#ff6600;stroke:#ff6600" />
	</g>
</g><g
         id="g18161"
         style="fill:#ff6600;stroke:#ff6600">
	<g
   id="g18159"
   style="fill:#ff6600;stroke:#ff6600">
		<polygon
   points="370.934,273.553 359.843,262.462 321.36,300.947 302.89,282.476 291.799,293.566 321.36,323.126 "
   id="polygon18157"
   style="fill:#ff6600;stroke:#ff6600" />
	</g>
</g><g
         id="g18167"
         style="fill:#ff6600;stroke:#ff6600">
	<g
   id="g18165"
   style="fill:#ff6600;stroke:#ff6600">
		<rect
   x="378.58499"
   y="288.57501"
   width="79.459999"
   height="15.683"
   id="rect18163"
   style="fill:#ff6600;stroke:#ff6600" />
	</g>
</g><g
         id="g18173"
         style="fill:#ff6600;stroke:#ff6600">
	<g
   id="g18171"
   style="fill:#ff6600;stroke:#ff6600">
		<rect
   x="378.58499"
   y="312.62299"
   width="47.049"
   height="15.683"
   id="rect18169"
   style="fill:#ff6600;stroke:#ff6600" />
	</g>
</g><g
         id="g18175"
         style="fill:#ff6600;stroke:#ff6600">
</g><g
         id="g18177"
         style="fill:#ff6600;stroke:#ff6600">
</g><g
         id="g18179"
         style="fill:#ff6600;stroke:#ff6600">
</g><g
         id="g18181"
         style="fill:#ff6600;stroke:#ff6600">
</g><g
         id="g18183"
         style="fill:#ff6600;stroke:#ff6600">
</g><g
         id="g18185"
         style="fill:#ff6600;stroke:#ff6600">
</g><g
         id="g18187"
         style="fill:#ff6600;stroke:#ff6600">
</g><g
         id="g18189"
         style="fill:#ff6600;stroke:#ff6600">
</g><g
         id="g18191"
         style="fill:#ff6600;stroke:#ff6600">
</g><g
         id="g18193"
         style="fill:#ff6600;stroke:#ff6600">
</g><g
         id="g18195"
         style="fill:#ff6600;stroke:#ff6600">
</g><g
         id="g18197"
         style="fill:#ff6600;stroke:#ff6600">
</g><g
         id="g18199"
         style="fill:#ff6600;stroke:#ff6600">
</g><g
         id="g18201"
         style="fill:#ff6600;stroke:#ff6600">
</g><g
         id="g18203"
         style="fill:#ff6600;stroke:#ff6600">
</g></g><g
       id="g19721"
       transform="matrix(0.35413436,0,0,0.35413436,89.779985,18.77428)"
       style="fill:#ff6600;stroke:none"><path
         d="M 3.5,3.75 A 0.25,0.25 0 0 1 3.75,3.5 h 13.5 a 0.25,0.25 0 0 1 0.25,0.25 v 10 a 0.75,0.75 0 0 0 1.5,0 v -10 A 1.75,1.75 0 0 0 17.25,2 H 3.75 A 1.75,1.75 0 0 0 2,3.75 v 16.5 C 2,21.216 2.784,22 3.75,22 h 7 a 0.75,0.75 0 0 0 0,-1.5 h -7 A 0.25,0.25 0 0 1 3.5,20.25 Z"
         id="path19709"
         style="fill:#ff6600;stroke:none" /><path
         d="m 6.25,7 a 0.75,0.75 0 0 0 0,1.5 h 8.5 a 0.75,0.75 0 0 0 0,-1.5 z M 5.5,11.75 A 0.75,0.75 0 0 1 6.25,11 h 4.5 a 0.75,0.75 0 0 1 0,1.5 H 6.25 A 0.75,0.75 0 0 1 5.5,11.75 Z m 16.28,4.53 a 0.75,0.75 0 1 0 -1.06,-1.06 l -4.97,4.97 -1.97,-1.97 a 0.75,0.75 0 1 0 -1.06,1.06 l 2.5,2.5 a 0.75,0.75 0 0 0 1.06,0 z"
         id="path19711"
         style="fill:#ff6600;stroke:none" /></g><g
       id="g22057"
       transform="matrix(0.01452014,0,0,0.01452014,187.52769,20.056682)"
       style="fill:#ff6600;stroke:#ff6600"><g
         id="g21894"
         style="fill:#ff6600;stroke:#ff6600">
	<g
   id="g21892"
   style="fill:#ff6600;stroke:#ff6600">
		<path
   d="M 282.128,109.255 243.315,41.942 208.593,61.181 c -9.5,-7.762 -19.797,-13.526 -31.229,-17.485 V 6.495 H 99.718 v 38.167 c -0.499,0.254 -1.017,0.516 -1.553,0.786 -7.872,3.982 -18.206,9.208 -26.751,15.734 L 38.608,41.836 0,109.417 33.403,128.602 c -0.872,5.59 -1.313,11.355 -1.313,17.206 0,5.641 0.476,11.415 1.421,17.23 l -33.225,19.194 39.038,67.592 32.134,-19.359 c 8.537,6.511 18.851,11.726 26.709,15.699 0.536,0.271 1.055,0.534 1.555,0.787 v 40.107 h 77.646 v -47.623 h -15.529 v 32.094 h -46.588 v -33.947 l -4.094,-2.197 c -1.732,-0.93 -3.797,-1.974 -5.984,-3.08 -8.521,-4.309 -20.191,-10.21 -27.813,-17.091 l -4.276,-3.861 -28.225,17.005 -23.36,-40.448 29.424,-16.999 -1.175,-5.518 c -1.413,-6.636 -2.13,-13.226 -2.13,-19.587 0,-6.746 0.675,-13.336 2.006,-19.586 L 50.802,120.686 21.168,103.666 44.28,63.21 73.13,80.222 77.363,76.4 c 7.623,-6.882 19.293,-12.784 27.813,-17.094 2.185,-1.105 4.249,-2.149 5.98,-3.078 l 4.093,-2.197 V 22.024 h 46.588 V 55.24 l 5.628,1.611 c 13.349,3.821 24.459,10.018 34.966,19.504 l 4.116,3.716 30.942,-17.144 23.383,40.551 -29.612,16.834 1.184,5.56 c 1.196,5.612 1.728,11.545 1.728,19.238 0,5.82 -1.124,11.049 -2.427,17.103 l -0.383,1.785 15.189,3.235 0.376,-1.755 c 1.364,-6.341 2.774,-12.897 2.774,-20.368 0,-6.384 -0.334,-11.775 -1.06,-16.814 z"
   id="path21890"
   style="fill:#ff6600;stroke:#ff6600" />
	</g>
</g><g
         id="g21900"
         style="fill:#ff6600;stroke:#ff6600">
	<g
   id="g21898"
   style="fill:#ff6600;stroke:#ff6600">
		<path
   d="m 476.452,278.356 c 0,-9.837 -1.14,-19.749 -3.394,-29.544 L 512,226.341 473.118,158.972 432.903,181.384 c -14.634,-13.53 -32.629,-23.657 -52.617,-29.608 v -43.822 h -78.682 v 43.838 c -18.318,5.568 -34.273,15.06 -49.47,29.452 l -38.028,-22.491 -29.518,51.831 -8.62,-12.876 c -10.267,6.873 -22.256,10.506 -34.668,10.506 -34.412,0 -62.408,-27.996 -62.408,-62.408 0,-34.412 27.996,-62.408 62.408,-62.408 34.412,0 62.408,27.996 62.408,62.408 0,2.318 -0.128,4.654 -0.381,6.942 l 15.435,1.704 c 0.315,-2.851 0.474,-5.76 0.474,-8.646 0,-42.975 -34.963,-77.938 -77.938,-77.938 -42.975,0 -77.938,34.963 -77.938,77.938 0,42.975 34.963,77.938 77.938,77.938 15.477,0 30.431,-4.528 43.251,-13.094 l -8.932,15.684 39.006,22.344 c -2.205,8.35 -4.215,17.676 -4.215,28.028 h 15.529 c 0,-10.353 2.663,-20.408 5.239,-29.703 l 1.609,-5.715 -36.015,-20.674 23.022,-40.437 34.809,20.575 4.258,-4.336 c 16.015,-16.305 32.669,-26.217 52.41,-31.195 l 5.866,-1.479 v -40.259 h 47.623 v 40.259 l 5.866,1.479 c 21.6,5.447 40.785,16.234 55.48,31.195 l 4.148,4.224 37.063,-20.657 23.472,40.669 -35.784,20.649 1.605,5.793 c 2.865,10.338 4.316,20.857 4.316,31.261 0,10.103 -1.495,20.62 -4.442,31.26 l -1.602,5.78 35.569,20.629 -23.735,40.671 -36.426,-20.658 -4.18,4.256 c -14.485,14.747 -34.189,25.825 -55.485,31.194 l -5.866,1.479 v 42.136 h -38.306 v 15.529 h 53.835 v -45.699 c 19.976,-5.948 37.961,-16.063 52.589,-29.578 l 39.521,22.413 39.314,-67.367 -38.772,-22.487 c 2.334,-10.005 3.514,-19.925 3.514,-29.557 z"
   id="path21896"
   style="fill:#ff6600;stroke:#ff6600" />
	</g>
</g><g
         id="g21906"
         style="fill:#ff6600;stroke:#ff6600">
	<g
   id="g21904"
   style="fill:#ff6600;stroke:#ff6600">
		<path
   d="m 344.02,177.238 c -55.874,0 -101.329,45.634 -101.329,101.539 h 15.529 c 0,-47.623 38.497,-86.01 85.807,-86.01 47.31,0 85.807,38.28 85.807,85.59 0,47.31 -38.161,85.8 -85.784,85.8 v 15.529 c 55.906,-10e-4 101.315,-45.352 101.315,-101.225 0,-55.872 -45.471,-101.223 -101.345,-101.223 z"
   id="path21902"
   style="fill:#ff6600;stroke:#ff6600" />
	</g>
</g><g
         id="g21912"
         style="fill:#ff6600;stroke:#ff6600">
	<g
   id="g21910"
   style="fill:#ff6600;stroke:#ff6600">
		<path
   d="m 141.298,91.26 c -30.077,0 -54.547,24.47 -54.547,54.547 0,30.077 24.47,54.546 54.547,54.546 30.077,0 54.546,-24.469 54.546,-54.546 0,-30.077 -24.469,-54.547 -54.546,-54.547 z m 0,93.564 c -21.514,0 -39.018,-17.503 -39.018,-39.017 0,-21.514 17.504,-39.018 39.018,-39.018 21.514,0 39.017,17.504 39.017,39.018 0,21.514 -17.503,39.017 -39.017,39.017 z"
   id="path21908"
   style="fill:#ff6600;stroke:#ff6600" />
	</g>
</g><g
         id="g21918"
         style="fill:#ff6600;stroke:#ff6600">
	<g
   id="g21916"
   style="fill:#ff6600;stroke:#ff6600">
		<path
   d="m 344.02,200.418 c -42.975,0 -77.938,34.963 -77.938,77.938 0,12.421 2.996,24.783 8.665,35.749 l 13.795,-7.132 c -4.599,-8.896 -6.931,-18.524 -6.931,-28.616 0,-34.412 27.996,-62.408 62.408,-62.408 34.412,0 62.408,27.996 62.408,62.408 0,34.412 -27.996,62.408 -62.408,62.408 -4.684,0 -9.35,-0.52 -13.869,-1.545 l -3.434,15.145 c 5.644,1.28 11.466,1.929 17.303,1.929 42.975,0 77.938,-34.963 77.938,-77.938 0.001,-42.975 -34.962,-77.938 -77.937,-77.938 z"
   id="path21914"
   style="fill:#ff6600;stroke:#ff6600" />
	</g>
</g><g
         id="g21924"
         style="fill:#ff6600;stroke:#ff6600">
	<g
   id="g21922"
   style="fill:#ff6600;stroke:#ff6600">
		<rect
   x="302.63599"
   y="264.27899"
   width="78.681999"
   height="15.529"
   id="rect21920"
   style="fill:#ff6600;stroke:#ff6600" />
	</g>
</g><g
         id="g21930"
         style="fill:#ff6600;stroke:#ff6600">
	<g
   id="g21928"
   style="fill:#ff6600;stroke:#ff6600">
		<rect
   x="318.16599"
   y="287.056"
   width="47.623001"
   height="15.529"
   id="rect21926"
   style="fill:#ff6600;stroke:#ff6600" />
	</g>
</g><g
         id="g21936"
         style="fill:#ff6600;stroke:#ff6600">
	<g
   id="g21934"
   style="fill:#ff6600;stroke:#ff6600">
		<rect
   x="108.002"
   y="139.009"
   width="15.529"
   height="15.529"
   id="rect21932"
   style="fill:#ff6600;stroke:#ff6600" />
	</g>
</g><g
         id="g21942"
         style="fill:#ff6600;stroke:#ff6600">
	<g
   id="g21940"
   style="fill:#ff6600;stroke:#ff6600">
		<rect
   x="131.813"
   y="139.009"
   width="15.529"
   height="15.529"
   id="rect21938"
   style="fill:#ff6600;stroke:#ff6600" />
	</g>
</g><g
         id="g21948"
         style="fill:#ff6600;stroke:#ff6600">
	<g
   id="g21946"
   style="fill:#ff6600;stroke:#ff6600">
		<rect
   x="154.59"
   y="139.009"
   width="15.529"
   height="15.529"
   id="rect21944"
   style="fill:#ff6600;stroke:#ff6600" />
	</g>
</g><g
         id="g21954"
         style="fill:#ff6600;stroke:#ff6600">
	<g
   id="g21952"
   style="fill:#ff6600;stroke:#ff6600">
		<path
   d="m 297.205,395.311 c 0,-2.883 -0.171,-5.77 -0.518,-8.723 l 32.662,-18.858 -31.085,-53.841 -34.107,18.87 c -5.206,-3.565 -11.175,-6.472 -16.391,-8.727 v -36.973 h -63.153 v 37.127 c -4.503,2.221 -8.919,4.994 -13.336,8.375 l -31.82,-18.912 -30.67,54.133 32.876,18.846 c -0.296,2.808 -0.445,5.712 -0.445,8.683 0,2.806 0.183,5.695 0.557,8.735 l -32.621,18.851 31.273,54.134 30.904,-18.922 c 4.396,3.359 8.794,6.117 13.282,8.329 v 39.068 h 63.153 V 466.59 c 5.202,-2.249 11.152,-5.146 16.349,-8.697 l 33.41,18.878 31.525,-53.838 -32.48,-18.855 c 0.366,-2.713 0.635,-5.7 0.635,-8.767 z m 10.57,33.224 -15.923,27.192 -29.27,-16.539 -4.132,3.536 c -6.447,5.514 -17.651,10 -21.332,11.474 l -4.878,1.954 v 33.825 h -32.094 v -33.825 l -4.878,-1.954 c -6.134,-2.457 -12.109,-6.21 -18.264,-11.474 l -4.288,-3.668 -26.807,16.412 -15.537,-26.895 28.519,-16.481 -0.994,-5.39 c -0.771,-4.182 -1.146,-7.908 -1.146,-11.391 0,-4.084 0.322,-7.809 0.982,-11.39 l 0.999,-5.41 -28.813,-16.517 15.237,-26.896 27.625,16.419 4.229,-3.617 c 6.161,-5.27 12.133,-9.024 18.256,-11.474 l 4.878,-1.954 v -31.883 h 32.094 v 31.883 l 4.878,1.954 c 3.681,1.473 14.882,5.957 21.332,11.474 l 4.094,3.5 29.898,-16.542 15.696,27.187 -28.548,16.482 0.995,5.392 c 0.734,3.982 1.092,7.708 1.092,11.391 0,4.031 -0.636,8.02 -1.258,11.391 l -0.992,5.378 z"
   id="path21950"
   style="fill:#ff6600;stroke:#ff6600" />
	</g>
</g><g
         id="g21960"
         style="fill:#ff6600;stroke:#ff6600">
	<g
   id="g21958"
   style="fill:#ff6600;stroke:#ff6600">
		<path
   d="m 219.267,348.561 c -25.778,0 -46.75,20.972 -46.75,46.75 0,25.778 20.972,46.75 46.75,46.75 25.778,0 46.75,-20.972 46.75,-46.75 0,-25.778 -20.971,-46.75 -46.75,-46.75 z m 0,77.971 c -17.215,0 -31.22,-14.005 -31.22,-31.22 0,-17.215 14.005,-31.22 31.22,-31.22 17.215,0 31.22,14.005 31.22,31.22 0.001,17.215 -14.004,31.22 -31.22,31.22 z"
   id="path21956"
   style="fill:#ff6600;stroke:#ff6600" />
	</g>
</g><g
         id="g21966"
         style="fill:#ff6600;stroke:#ff6600">
	<g
   id="g21964"
   style="fill:#ff6600;stroke:#ff6600">
		<path
   d="m 219.267,371.953 c -12.88,0 -23.359,10.479 -23.359,23.359 0,12.88 10.479,23.359 23.359,23.359 12.88,0 23.359,-10.479 23.359,-23.359 0.001,-12.88 -10.479,-23.359 -23.359,-23.359 z m 0,31.188 c -4.317,0 -7.83,-3.513 -7.83,-7.83 0,-4.317 3.513,-7.83 7.83,-7.83 4.317,0 7.83,3.513 7.83,7.83 0,4.317 -3.512,7.83 -7.83,7.83 z"
   id="path21962"
   style="fill:#ff6600;stroke:#ff6600" />
	</g>
</g><g
         id="g21968"
         style="fill:#ff6600;stroke:#ff6600">
</g><g
         id="g21970"
         style="fill:#ff6600;stroke:#ff6600">
</g><g
         id="g21972"
         style="fill:#ff6600;stroke:#ff6600">
</g><g
         id="g21974"
         style="fill:#ff6600;stroke:#ff6600">
</g><g
         id="g21976"
         style="fill:#ff6600;stroke:#ff6600">
</g><g
         id="g21978"
         style="fill:#ff6600;stroke:#ff6600">
</g><g
         id="g21980"
         style="fill:#ff6600;stroke:#ff6600">
</g><g
         id="g21982"
         style="fill:#ff6600;stroke:#ff6600">
</g><g
         id="g21984"
         style="fill:#ff6600;stroke:#ff6600">
</g><g
         id="g21986"
         style="fill:#ff6600;stroke:#ff6600">
</g><g
         id="g21988"
         style="fill:#ff6600;stroke:#ff6600">
</g><g
         id="g21990"
         style="fill:#ff6600;stroke:#ff6600">
</g><g
         id="g21992"
         style="fill:#ff6600;stroke:#ff6600">
</g><g
         id="g21994"
         style="fill:#ff6600;stroke:#ff6600">
</g><g
         id="g21996"
         style="fill:#ff6600;stroke:#ff6600">
</g></g><g
       id="g22787"
       transform="matrix(0.12386853,0,0,0.12386853,137.60655,80.991496)"
       style="fill:#ff6600;stroke:#ff6600">
	<path
   d="m 45.414,34.586 c -0.78,-0.781 -2.048,-0.781 -2.828,0 L 41,36.172 37.828,33 l 7,-7 H 48 c 7.851,0 12,-4.841 12,-14 0,-0.693 -0.359,-1.337 -0.949,-1.701 -0.589,-0.365 -1.326,-0.398 -1.946,-0.088 l -6.71,3.355 -1.961,-1.961 3.355,-6.71 C 52.099,4.275 52.066,3.539 51.701,2.949 51.337,2.359 50.693,2 50,2 40.841,2 36,6.149 36,14 v 3.171 l -7,7 L 17.828,13 19.414,11.414 C 19.85,10.978 20.06,10.367 19.985,9.756 19.91,9.145 19.557,8.602 19.029,8.285 l -10,-6 C 8.243,1.812 7.235,1.937 6.586,2.586 l -2,2 C 3.937,5.235 3.813,6.242 4.285,7.029 l 6,10 c 0.317,0.528 0.859,0.881 1.471,0.956 C 11.837,17.995 11.919,18 12,18 c 0.527,0 1.037,-0.208 1.414,-0.586 L 15,15.828 26.172,27 2.586,50.586 c -0.22,0.219 -0.385,0.487 -0.483,0.782 l -2,6 c -0.239,0.719 -0.052,1.511 0.483,2.046 l 2,2 C 2.967,61.795 3.478,62 4,62 4.211,62 4.425,61.966 4.632,61.897 l 6,-2 c 0.295,-0.098 0.562,-0.264 0.782,-0.483 L 35,35.828 38.172,39 36.586,40.586 c -0.781,0.781 -0.781,2.047 0,2.828 l 18,18 C 54.976,61.805 55.488,62 56,62 c 0.512,0 1.024,-0.195 1.414,-0.586 l 6,-6 c 0.781,-0.781 0.781,-2.047 0,-2.828 z M 12.397,12.774 8.831,6.831 14.774,10.397 Z M 8.919,56.252 4.54,57.712 4.288,57.46 5.748,53.081 39.414,19.414 C 39.789,19.039 40,18.53 40,18 v -4 c 0,-3.385 0.87,-6.835 6.644,-7.76 l -2.433,4.866 c -0.385,0.77 -0.234,1.7 0.375,2.309 l 4,4 c 0.609,0.609 1.54,0.76 2.309,0.375 l 4.866,-2.433 C 54.835,21.13 51.385,22 48,22 h -4 c -0.53,0 -1.039,0.211 -1.414,0.586 z M 56,57.171 40.829,42 44,38.829 59.171,54 Z"
   id="path22785"
   style="fill:#ff6600;stroke:#ff6600" />
</g><g
       id="g30287"
       transform="matrix(0.02078326,0,0,0.01997445,24.012698,-60.098739)"
       style="fill:#ff5b00"><g
         id="B_-_107_x2C__presentation_x2C__Analytics_x2C__business_x2C__graph_x2C__marketing_x2C__people_x2C__statistics"
         style="fill:#ff5b00"><g
           id="g30273"
           style="fill:#ff5b00"><path
             d="m 416.648,329.979 c 0,-1.609 1.272,-2.959 2.917,-2.959 1.647,0 2.996,1.35 2.996,2.959 v 34.18 h 30.325 v -58.216 h -66.64 v 58.216 h 30.401 v -34.18 z m 0.448,-86.482 h 5.019 v -6.703 h -5.019 z m 5.689,-12.618 h 2.245 0.076 9.511 l -0.525,-10.108 z m -17.743,-9.809 -0.526,9.809 h 9.512 0.148 1.049 z m 24.484,71.545 -21.341,-0.038 c -1.646,-0.226 -2.771,-1.685 -2.545,-3.296 l 5.541,-42.902 v -9.585 h -9.734 c -1.648,0 -2.996,-1.31 -2.996,-2.957 l 0.822,-14.938 -31.594,12.392 v 68.699 h 12.427 v -55.708 c 0,-1.722 1.425,-3.108 3.069,-3.108 1.723,0 3.071,1.386 3.071,3.108 v 55.708 h 66.64 v -55.708 c 0,-1.722 1.424,-3.108 3.068,-3.108 1.723,0 3.146,1.386 3.146,3.108 v 55.708 h 12.429 v -68.699 l -31.598,-12.392 0.749,14.788 c 0.076,1.611 -1.197,2.996 -2.772,3.107 h -9.882 v 9.623 l 4.416,43.203 c 10e-4,1.647 -1.271,2.995 -2.916,2.995 z m -17.597,-5.953 h 14.303 l -3.818,-37.213 h -5.692 z m 1.272,-113.137 c 1.572,0.636 2.322,2.358 1.647,3.855 -0.599,1.535 -2.321,2.247 -3.817,1.646 0,0 -4.117,-1.795 -5.242,-0.673 -1.198,1.16 -3.068,1.16 -4.193,0.037 -1.122,-1.159 -1.197,-3.033 0,-4.193 4.045,-4.117 11.605,-0.672 11.605,-0.672 z m 14.978,5.502 c -1.572,0.6 -3.221,-0.112 -3.894,-1.646 -0.6,-1.497 0.146,-3.219 1.646,-3.855 0,0 7.561,-3.445 11.678,0.673 1.125,1.16 1.125,3.034 0,4.193 -1.121,1.123 -3.068,1.123 -4.192,-0.037 -1.121,-1.123 -5.238,0.672 -5.238,0.672 z m 2.321,-18.306 v 0.075 c 0.072,0.262 0.072,0.15 0,-0.075 z m -35.268,-0.375 c -0.751,-1.422 -0.225,-3.219 1.271,-3.968 1.425,-0.748 3.221,-0.149 3.97,1.31 0.448,0.862 0.974,1.648 1.648,2.284 1.87,2.021 4.564,3.07 7.186,3.294 2.845,0.263 5.617,-0.261 7.712,-1.346 l 0.15,-0.076 c 0.675,-0.375 1.273,-0.749 1.724,-1.197 l 0.148,-0.151 c 6.515,-6.103 9.284,-6.851 11.007,-5.053 1.122,1.161 1.05,2.32 0.823,3.63 2.022,-0.71 4.72,-1.459 7.265,-1.572 3.145,-0.149 5.913,0.637 7.413,3.146 -1.05,-5.093 -3.595,-9.623 -7.114,-13.143 -4.867,-4.829 -11.529,-7.823 -18.87,-7.823 -7.337,0 -14.001,2.994 -18.792,7.823 -4.792,4.792 -7.788,11.457 -7.788,18.794 0,8.273 3.22,20.18 9.284,28.977 4.345,6.366 10.258,10.97 17.296,10.97 7.113,0 12.954,-4.604 17.371,-10.97 6.067,-8.797 9.212,-20.703 9.212,-28.977 0,-0.523 0,-1.048 0,-1.61 -0.375,0.712 -1.05,1.236 -1.799,1.459 -1.572,0.45 -3.221,-0.487 -3.668,-2.059 -0.15,-0.598 -1.125,-0.748 -2.321,-0.673 -2.022,0.075 -4.492,0.861 -6.216,1.459 -4.342,1.61 -6.363,0.338 -7.187,-2.021 l -0.151,-0.487 c -0.375,0.749 -0.821,1.572 -1.72,2.396 l -0.075,0.15 c -0.897,0.824 -1.947,1.571 -3.072,2.172 l -0.146,0.074 c -3.072,1.572 -7.039,2.358 -11.009,2.022 -3.969,-0.374 -8.011,-1.984 -11.007,-5.13 -0.972,-1.045 -1.872,-2.28 -2.545,-3.704 z m -289.919,64.507 c -1.647,0 -2.996,-1.348 -2.996,-2.996 0,-1.61 1.349,-2.957 2.996,-2.957 h 91.272 c 1.571,0 2.92,1.347 2.92,2.957 0,1.648 -1.349,2.996 -2.92,2.996 z m 0,-13.067 c -1.647,0 -2.996,-1.348 -2.996,-2.958 0,-1.648 1.349,-2.957 2.996,-2.957 h 91.272 c 1.571,0 2.92,1.309 2.92,2.957 0,1.61 -1.349,2.958 -2.92,2.958 z m -19.469,-4.23 H 70.269 v 15.574 h 15.575 z m -18.568,-5.953 h 21.489 c 1.647,0 2.995,1.349 2.995,2.996 v 21.488 c 0,1.648 -1.348,2.995 -2.995,2.995 H 67.276 c -1.647,0 -2.92,-1.346 -2.92,-2.995 v -21.488 c -10e-4,-1.647 1.272,-2.996 2.92,-2.996 z m 38.037,-17.483 c -1.647,0 -2.996,-1.311 -2.996,-2.959 0,-1.647 1.349,-2.958 2.996,-2.958 h 91.272 c 1.571,0 2.92,1.311 2.92,2.958 0,1.648 -1.349,2.959 -2.92,2.959 z m 0,-13.066 c -1.647,0 -2.996,-1.311 -2.996,-2.958 0,-1.646 1.349,-2.957 2.996,-2.957 h 91.272 c 1.571,0 2.92,1.311 2.92,2.957 0,1.647 -1.349,2.958 -2.92,2.958 z M 85.844,166.823 H 70.269 v 15.611 h 15.575 z m -18.568,-5.914 h 21.489 c 1.647,0 2.995,1.348 2.995,2.958 v 21.527 c 0,1.647 -1.348,2.957 -2.995,2.957 H 67.276 c -1.647,0 -2.92,-1.31 -2.92,-2.957 v -21.527 c -10e-4,-1.611 1.272,-2.958 2.92,-2.958 z m 38.037,-17.522 c -1.647,0 -2.996,-1.31 -2.996,-2.958 0,-1.61 1.349,-2.956 2.996,-2.956 h 91.272 c 1.571,0 2.92,1.346 2.92,2.956 0,1.648 -1.349,2.958 -2.92,2.958 z m 0,-13.028 c -1.647,0 -2.996,-1.349 -2.996,-2.958 0,-1.647 1.349,-2.994 2.996,-2.994 h 91.272 c 1.571,0 2.92,1.347 2.92,2.994 0,1.61 -1.349,2.958 -2.92,2.958 z M 85.844,126.128 H 70.269 v 15.574 h 15.575 z m -18.568,-5.915 h 21.489 c 1.647,0 2.995,1.311 2.995,2.92 v 21.526 c 0,1.647 -1.348,2.958 -2.995,2.958 H 67.276 c -1.647,0 -2.92,-1.311 -2.92,-2.958 v -21.526 c -10e-4,-1.609 1.272,-2.92 2.92,-2.92 z m 211.298,8.387 c -1.645,0 -2.921,-1.349 -2.921,-2.958 0,-1.647 1.276,-2.958 2.921,-2.958 h 48.295 c 1.574,0 2.92,1.311 2.92,2.958 0,1.61 -1.346,2.958 -2.92,2.958 z m 0,-10.52 c -1.645,0 -2.921,-1.349 -2.921,-2.959 0,-1.646 1.276,-2.957 2.921,-2.957 h 48.295 c 1.574,0 2.92,1.311 2.92,2.957 0,1.61 -1.346,2.959 -2.92,2.959 z m -11.978,41.779 7.936,31.973 c 0.451,1.498 -0.374,3.107 -1.87,3.593 l -31.451,10.222 c -1.572,0.487 -3.219,-0.412 -3.667,-1.947 -0.224,-0.748 -0.523,-1.684 -0.674,-2.433 -2.397,-9.622 -0.674,-19.28 4.042,-27.18 4.72,-7.862 12.431,-13.926 22.015,-16.324 l 0.076,-0.036 c 1.645,-0.413 3.218,0.56 3.593,2.132 z m 1.572,30.774 -6.516,-26.317 c -6.738,2.396 -12.204,7.038 -15.647,12.803 -3.821,6.366 -5.318,14.152 -3.595,21.939 z m -23.064,18.795 35.417,-9.472 -9.433,-35.267 c -0.076,-0.299 -0.151,-0.6 -0.151,-0.898 0,-1.46 1.049,-2.695 2.396,-2.92 11.307,-2.957 22.687,-1.123 32.121,4.305 9.36,5.431 16.698,14.415 19.77,25.646 l 0.148,0.413 c 2.92,11.269 1.049,22.724 -4.342,32.083 -5.467,9.435 -14.525,16.81 -25.834,19.842 -11.382,3.033 -22.912,1.199 -32.348,-4.268 -9.431,-5.429 -16.772,-14.488 -19.84,-25.832 -0.373,-1.573 0.524,-3.22 2.096,-3.632 z m 39.835,-4.53 -35.343,9.434 c 3.071,8.459 8.913,15.236 16.249,19.468 8.088,4.68 18.046,6.251 27.781,3.632 9.807,-2.621 17.594,-8.949 22.311,-17.072 4.644,-8.125 6.216,-18.046 3.594,-27.817 v -0.037 c -2.621,-9.773 -8.984,-17.522 -16.996,-22.2 -7.338,-4.232 -16.174,-5.953 -25.008,-4.343 l 9.508,35.303 c 0.375,1.572 -0.523,3.219 -2.096,3.632 z M 46.833,282.619 h 299.504 c 1.724,0 3.296,-0.712 4.417,-1.836 1.124,-1.16 1.871,-2.732 1.871,-4.492 0,-1.721 -0.747,-3.293 -1.871,-4.454 -1.121,-1.161 -2.693,-1.835 -4.417,-1.835 H 345.14 47.958 46.833 c -1.72,0 -3.292,0.674 -4.492,1.835 -1.122,1.161 -1.872,2.733 -1.872,4.454 0,1.76 0.75,3.332 1.872,4.455 1.2,1.161 2.772,1.873 4.492,1.873 z M 342.069,101.083 H 51.027 V 264.05 H 342.069 Z M 46.833,95.131 h 1.125 297.183 1.197 c 1.724,0 3.296,-0.712 4.417,-1.836 1.124,-1.161 1.871,-2.732 1.871,-4.454 0,-1.76 -0.747,-3.333 -1.871,-4.492 -1.121,-1.124 -2.693,-1.836 -4.417,-1.836 H 46.833 c -1.72,0 -3.292,0.712 -4.492,1.836 -1.122,1.159 -1.872,2.732 -1.872,4.492 0,1.722 0.75,3.293 1.872,4.454 1.2,1.123 2.772,1.836 4.492,1.836 z m 40.284,309.46 2.47,-2.396 -9.583,-13.028 -0.823,0.824 z m 10.258,-2.471 1.872,1.724 8.461,-13.929 -0.821,-0.748 z M 93.856,331.4 c -5.243,0 -9.958,2.133 -13.402,5.578 -3.371,3.407 -5.541,8.161 -5.541,13.365 0,6.028 2.322,14.714 6.738,21.115 3.144,4.492 7.265,7.75 12.205,7.75 4.942,0 9.136,-3.258 12.204,-7.75 4.42,-6.401 6.738,-15.087 6.738,-21.115 0,-5.204 -2.095,-9.958 -5.538,-13.365 -3.447,-3.445 -8.162,-5.578 -13.404,-5.578 z m 25.984,80.492 c 0,-1.723 1.345,-3.107 3.069,-3.107 1.723,0 3.143,1.385 3.143,3.107 v 17.596 h 8.913 v -27.705 l -22.239,-8.76 -10.26,16.81 c -0.072,0.225 -0.223,0.45 -0.447,0.638 -1.125,1.197 -2.997,1.273 -4.117,0.15 l -4.344,-4.044 -5.016,4.979 -0.076,0.038 v 0 0.036 l -0.075,0.038 v 0.037 0 l -0.076,0.039 v 0.035 0 l -0.073,0.039 v 0 0 l -0.076,0.037 v 0 l -0.075,0.074 h -0.076 v 0 l -0.148,0.113 -0.075,0.038 -0.076,0.036 v 0 0.037 h -0.072 v 0.038 h -0.076 v 0.038 l -0.151,0.036 v 0 H 87.34 v 0 h -0.072 v 0.038 h -0.075 v 0 0.038 h -0.076 v 0 h -0.076 v 0 l -0.072,0.037 v 0 0 h -0.075 v 0 h -0.076 v 0 l -0.076,0.036 v 0 H 86.67 v 0 h -0.075 v 0 h -0.076 -0.151 v 0 H 86.22 v 0 l -0.151,-0.036 v 0 h -0.073 v 0 H 85.92 v 0 h -0.076 v 0 l -0.075,-0.037 v 0 0 0 l -0.072,-0.038 h -0.076 v 0 l -0.076,-0.038 v 0 l -0.223,-0.074 v 0 l -0.151,-0.038 v 0 -0.037 h -0.076 v -0.036 h -0.072 v -0.038 0 l -0.076,-0.037 -0.075,-0.076 h -0.076 v -0.037 l -0.148,-0.074 v 0 l -0.075,-0.039 v -0.035 0 l -0.076,-0.039 v -0.037 h -0.072 v -0.038 -0.036 h -0.076 v -0.038 0 l -0.076,-0.037 v -0.038 -0.038 0 l -0.075,-0.035 v -0.039 0 l -0.076,-0.111 v 0 l -0.072,-0.037 v -0.039 0 l -0.076,-0.037 v 0 -0.074 0 l -0.075,-0.037 v -0.039 l -0.076,-0.111 -0.072,-0.111 -9.659,-17.708 -22.166,8.721 v 27.705 h 8.988 v -17.596 c 0,-1.723 1.345,-3.107 3.068,-3.107 1.723,0 3.068,1.385 3.068,3.107 v 17.41 h 52.791 v -17.413 z m 70.382,-7.301 2.47,-2.396 -9.583,-13.028 -0.823,0.824 z m 10.258,-2.471 1.871,1.724 8.462,-13.929 -0.825,-0.748 z m -3.52,-70.72 c -5.242,0 -9.957,2.133 -13.401,5.578 -3.447,3.407 -5.542,8.161 -5.542,13.365 0,6.028 2.323,14.714 6.739,21.115 3.145,4.492 7.262,7.75 12.204,7.75 4.944,0 9.061,-3.258 12.205,-7.75 4.417,-6.401 6.738,-15.087 6.738,-21.115 0,-5.204 -2.095,-9.958 -5.541,-13.365 -3.443,-3.445 -8.159,-5.578 -13.402,-5.578 z m 25.982,80.492 c 0,-1.723 1.348,-3.107 3.071,-3.107 1.721,0 3.069,1.385 3.069,3.107 v 17.596 h 8.985 v -27.705 l -22.239,-8.76 -10.257,16.81 c -0.076,0.225 -0.224,0.45 -0.448,0.638 -1.125,1.197 -2.92,1.273 -4.121,0.15 l -4.341,-4.044 -5.019,4.979 -0.072,0.038 v 0 0.036 l -0.075,0.038 v 0.037 0 l -0.076,0.039 v 0.035 0 l -0.076,0.039 v 0 0 l -0.072,0.037 v 0 l -0.076,0.074 h -0.075 v 0 l -0.148,0.113 -0.076,0.038 -0.075,0.036 v 0 0.037 h -0.076 v 0.038 h -0.075 v 0.038 l -0.148,0.036 v 0 h -0.076 v 0 h -0.076 v 0.038 h -0.072 v 0 l -0.075,0.038 v 0 h -0.076 v 0 0 0.037 h -0.076 v 0 h -0.072 v 0 h -0.075 v 0 l -0.076,0.036 v 0 h -0.076 v 0 h -0.075 v 0 h -0.072 -0.152 v 0 h -0.147 v 0 l -0.152,-0.036 v 0 h -0.075 v 0 h -0.072 v 0 h -0.076 v 0 l -0.076,-0.037 v 0 H 188.8 v 0 -0.038 h -0.072 v 0 l -0.076,-0.038 v 0 l -0.227,-0.074 v 0 l -0.148,-0.038 v 0 -0.037 H 188.2 v -0.036 h -0.076 v -0.038 h -0.072 v -0.037 l -0.076,-0.076 H 187.9 v -0.037 l -0.148,-0.074 v 0 l -0.076,-0.039 v -0.035 0 l -0.075,-0.039 v -0.037 h -0.076 v -0.038 -0.036 h -0.076 v -0.038 0 l -0.072,-0.037 v -0.038 0 l -0.075,-0.038 v -0.035 -0.039 0 l -0.076,-0.111 v 0 l -0.148,-0.188 v 0 l -0.075,-0.037 -0.076,-0.15 -0.076,-0.111 -9.659,-17.708 -22.163,8.721 v 27.705 h 8.985 v -17.596 c 0,-1.723 1.349,-3.107 3.072,-3.107 1.719,0 3.068,1.385 3.068,3.107 v 17.41 h 52.788 z m 70.384,-7.301 2.471,-2.396 -9.584,-13.028 -0.9,0.824 z m 10.258,-2.471 1.871,1.724 8.463,-13.929 -0.826,-0.748 z m -3.519,-70.72 c -5.241,0 -9.958,2.133 -13.405,5.578 -3.443,3.407 -5.538,8.161 -5.538,13.365 0,6.028 2.319,14.714 6.739,21.115 3.144,4.492 7.262,7.75 12.204,7.75 4.94,0 9.061,-3.258 12.204,-7.75 4.418,-6.401 6.739,-15.087 6.739,-21.115 0,-5.204 -2.099,-9.958 -5.541,-13.365 -3.444,-3.445 -8.162,-5.578 -13.402,-5.578 z m 25.982,80.492 c 0,-1.723 1.424,-3.107 3.068,-3.107 1.724,0 3.071,1.385 3.071,3.107 v 17.596 h 8.985 v -27.705 l -22.239,-8.76 -10.257,16.81 c -0.076,0.225 -0.225,0.45 -0.451,0.638 -1.121,1.197 -2.92,1.273 -4.193,0.15 l -4.341,-4.044 -4.942,4.979 -0.076,0.038 v 0 0.036 l -0.072,0.038 v 0.037 0 l -0.075,0.039 v 0.035 0 l -0.076,0.039 v 0 0 l -0.075,0.037 v 0 l -0.072,0.074 v 0 h -0.076 l -0.151,0.113 -0.072,0.038 -0.075,0.036 v 0 0.037 h -0.076 v 0.038 h -0.076 v 0.038 l -0.146,0.036 v 0 h -0.076 v 0 h -0.076 v 0.038 h -0.075 v 0 l -0.073,0.038 v 0 h -0.074 v 0 0 l -0.076,0.037 v 0 0 h -0.075 v 0 h -0.073 v 0 l -0.075,0.036 v 0 h -0.076 v 0 h -0.075 v 0 h -0.076 -0.147 v 0 h -0.151 v 0 l -0.148,-0.036 v 0 h -0.076 v 0 h -0.074 v 0 h -0.072 v 0 -0.037 h -0.076 v 0 h -0.076 v -0.038 h -0.074 -0.076 v -0.038 0 l -0.224,-0.074 v 0 l -0.148,-0.038 v 0 -0.037 h -0.075 v -0.036 h -0.076 v -0.038 0 l -0.076,-0.037 -0.147,-0.076 v 0 -0.037 l -0.151,-0.074 v 0 l -0.072,-0.039 v -0.035 0 l -0.076,-0.039 v -0.037 h -0.074 v -0.038 -0.036 h -0.076 v -0.038 0 l -0.076,-0.037 v -0.038 -0.038 h -0.072 v -0.035 -0.039 0 l -0.075,-0.111 h -0.075 v -0.037 -0.039 0 -0.037 h -0.076 v -0.074 0 -0.037 l -0.072,-0.039 -0.076,-0.111 v -0.111 l -9.734,-17.708 -22.162,8.721 v 27.705 h 8.984 v -17.596 c 0,-1.723 1.349,-3.107 3.068,-3.107 1.723,0 3.072,1.385 3.072,3.107 v 17.41 h 52.787 v -17.413 z"
             style="clip-rule:evenodd;fill:#ff5b00;fill-rule:evenodd"
             id="path30271" /></g></g><g
         id="Layer_1"
         style="fill:#ff5b00" /></g><g
       id="g33085"
       transform="translate(-0.89168671,1.4676779)"><path
         sodipodi:type="star"
         style="fill:#01064a;fill-rule:evenodd;stroke:#008000;stroke-width:1.05833;stroke-dasharray:none"
         id="path5512-7-7-6-7-6"
         inkscape:flatsided="false"
         sodipodi:sides="5"
         sodipodi:cx="37.172707"
         sodipodi:cy="23.927839"
         sodipodi:r1="39.417042"
         sodipodi:r2="39.417042"
         sodipodi:arg1="1.0386179"
         sodipodi:arg2="1.6669365"
         inkscape:rounded="5"
         inkscape:randomized="-2.0816682e-17"
         d="M 57.173375,57.893652 C -47.786775,119.69912 154.63187,74.855206 33.38898,63.162857 -87.853879,51.47051 102.26478,134.1697 11.049845,53.445619 -80.165113,-27.278477 25.034779,151.37556 -1.3112481,32.453589 -27.657269,-86.468357 -47.558973,119.90069 1.0272221,8.2050172 49.613427,-103.49068 -87.788105,51.767495 17.172041,-10.037975 122.13216,-71.843432 -80.286429,-26.999534 40.95643,-15.307178 162.19931,-3.6148204 -27.919394,-86.314028 63.29557,-5.5899382 154.51051,75.134134 49.310648,-103.51986 75.656661,15.402087 102.00268,134.32406 121.90439,-72.045038 73.31819,39.650664 24.732003,151.34634 162.1335,-3.9117978 57.173375,57.893652 Z"
         inkscape:transform-center-x="-0.081938188"
         inkscape:transform-center-y="-0.18462914"
         transform="matrix(0.13168526,0,0,0.13168526,217.46918,60.840554)" /><g
         id="g32071"
         transform="matrix(0.02797002,0,0,0.02797002,218.53654,59.482028)"
         style="fill:#ff6600"><g
           id="g32014"
           style="fill:#ff6600">
	<g
   id="g32012"
   style="fill:#ff6600">
		<path
   d="m 181.731,0 c 15.202,0 27.526,12.323 27.526,27.526 0,15.2 -12.324,27.524 -27.526,27.524 -15.198,0 -27.524,-12.324 -27.524,-27.524 C 154.207,12.323 166.533,0 181.731,0 Z"
   id="path32006"
   style="fill:#ff6600" />
		<path
   d="m 275.502,153.914 c 1.579,0.577 3.185,0.852 4.769,0.852 5.618,0 10.89,-3.456 12.95,-9.028 8.782,-23.84 -5.25,-58.386 -6.876,-62.246 l -1.942,-4.59 -48.818,-25.287 c -2.89,-1.497 -6.054,-1.815 -9.016,-1.225 -22.126,-1.9 -51.222,14.374 -58.787,18.892 -1.196,0.714 -1.869,1.139 -1.869,1.139 v 0.031 c -1.274,0.859 -2.465,1.856 -3.412,3.182 l -26.502,37.037 -35.302,17.373 c -6.835,3.366 -9.652,11.633 -6.289,18.468 2.403,4.878 7.296,7.71 12.386,7.71 2.048,0 4.119,-0.455 6.082,-1.421 l 41.523,-20.436 13.729,-19.18 2.284,44.1 c 0,0 0.149,0.057 0.408,0.16 0.062,0.777 0.156,1.559 0.363,2.341 l 4.442,17.124 -26.535,30.059 -66.238,80.033 c -4.857,5.872 -4.034,14.571 1.835,19.429 2.571,2.128 5.688,3.158 8.785,3.158 3.966,0 7.907,-1.698 10.639,-4.997 l 65.818,-79.541 14.064,-15.938 1.388,5.386 7.694,2.112 c 21.35,5.872 47.101,14.344 54.251,18.419 2.512,3.552 6.654,5.836 11.258,5.836 0.315,0 0.637,-0.011 0.958,-0.031 7.606,-0.523 13.344,-7.109 12.82,-14.717 -0.787,-11.516 -11.309,-16.984 -40.55,-26.615 -8.9,-2.936 -17.688,-5.566 -23.7,-7.307 l -2.086,-8.036 9.206,-10.434 c 8.891,-5.593 24.984,-52.962 28.045,-87.073 l 19.351,10.028 c 3.713,10.545 8.104,28.283 4.701,37.507 -2.64,7.158 1.026,15.09 8.173,17.726 z"
   id="path32008"
   style="fill:#ff6600" />
		<path
   d="m 44.475,246.033 c 16.003,0 28.977,12.976 28.977,28.977 0,16 -12.974,28.977 -28.977,28.977 -16.003,0 -28.977,-12.977 -28.977,-28.977 0,-16.001 12.974,-28.977 28.977,-28.977 z"
   id="path32010"
   style="fill:#ff6600" />
	</g>
</g><g
           id="g32016"
           style="fill:#ff6600">
</g><g
           id="g32018"
           style="fill:#ff6600">
</g><g
           id="g32020"
           style="fill:#ff6600">
</g><g
           id="g32022"
           style="fill:#ff6600">
</g><g
           id="g32024"
           style="fill:#ff6600">
</g><g
           id="g32026"
           style="fill:#ff6600">
</g><g
           id="g32028"
           style="fill:#ff6600">
</g><g
           id="g32030"
           style="fill:#ff6600">
</g><g
           id="g32032"
           style="fill:#ff6600">
</g><g
           id="g32034"
           style="fill:#ff6600">
</g><g
           id="g32036"
           style="fill:#ff6600">
</g><g
           id="g32038"
           style="fill:#ff6600">
</g><g
           id="g32040"
           style="fill:#ff6600">
</g><g
           id="g32042"
           style="fill:#ff6600">
</g><g
           id="g32044"
           style="fill:#ff6600">
</g></g></g></g></svg>
