<?xml version="1.0" encoding="UTF-8" standalone="no"?>
<svg
   xmlns:dc="http://purl.org/dc/elements/1.1/"
   xmlns:cc="http://creativecommons.org/ns#"
   xmlns:rdf="http://www.w3.org/1999/02/22-rdf-syntax-ns#"
   xmlns:svg="http://www.w3.org/2000/svg"
   xmlns="http://www.w3.org/2000/svg"
   xmlns:sodipodi="http://sodipodi.sourceforge.net/DTD/sodipodi-0.dtd"
   xmlns:inkscape="http://www.inkscape.org/namespaces/inkscape"
   version="1.0"
   width="48"
   height="48"
   viewBox="0 0 36 36"
   preserveAspectRatio="xMidYMid meet"
   id="svg34"
   sodipodi:docname="303417.svg"
   inkscape:version="0.92.3 (2405546, 2018-03-11)">
  <defs
     id="defs38" />
  <sodipodi:namedview
     pagecolor="#505050"
     bordercolor="#ffffff"
     borderopacity="1"
     objecttolerance="10"
     gridtolerance="10"
     guidetolerance="10"
     inkscape:pageopacity="0"
     inkscape:pageshadow="2"
     inkscape:window-width="1875"
     inkscape:window-height="1025"
     id="namedview36"
     showgrid="false"
     units="px"
     inkscape:zoom="5.6568543"
     inkscape:cx="50.101544"
     inkscape:cy="8.7687355"
     inkscape:window-x="45"
     inkscape:window-y="27"
     inkscape:window-maximized="1"
     inkscape:current-layer="svg34" />
  <metadata
     id="metadata2">
Created by potrace 1.15, written by Peter Selinger 2001-2017
<rdf:RDF>
  <cc:Work
     rdf:about="">
    <dc:format>image/svg+xml</dc:format>
    <dc:type
       rdf:resource="http://purl.org/dc/dcmitype/StillImage" />
    <dc:title></dc:title>
  </cc:Work>
</rdf:RDF>
</metadata>
  <path
     style="fill:#800000;stroke:none;stroke-width:0.00415907"
     d="M 1.062803,0.0475307 C 0.98291612,0.0540461 0.91639611,0.07689174 0.86505438,0.11433128 0.65483623,0.26409082 0.62625144,0.55403755 0.7685525,1.0300611 c 0.19728158,0.6685726 0.9016471,1.951627 1.2703373,2.3046333 0.00647,0.00534 -0.018213,0.090209 -0.053788,0.1864868 -0.1034928,0.2781261 -0.091187,0.7008545 0.028476,1.0966491 0.106726,0.3530068 0.41706,0.9630928 0.6628535,1.3054028 0.090555,0.123012 0.1753202,0.2458092 0.1882567,0.2672038 0.01617,0.021398 0.00227,0.1236135 -0.030057,0.2198848 -0.087321,0.2781275 -0.077969,0.861584 0.01582,1.1718014 0.1617063,0.5134633 0.6829578,1.2237965 1.2877393,1.7479588 0.1584719,0.1337112 0.290946,0.2562876 0.2974139,0.2616347 0.00647,0.010614 -0.012025,0.1776407 -0.041131,0.3701897 -0.042044,0.2727797 -0.046438,0.4017847 -0.020566,0.5622407 0.045278,0.283477 0.2558374,0.704841 0.4951626,0.993666 0.1099603,0.133711 0.2071002,0.256505 0.2135686,0.267204 0.00647,0.01062 -0.028936,0.04883 -0.080681,0.08629 -0.3977976,0.288822 -0.5535483,0.72552 -0.4144812,1.180152 0.080853,0.262081 0.2595237,0.60519 0.4018252,0.770992 0.152004,0.176501 0.1541842,0.207714 0.04746,0.250504 -0.045278,0.0214 -0.1392538,0.123829 -0.2104046,0.225453 -0.2360911,0.358353 -0.2391179,0.823322 -0.00949,1.219118 0.1261308,0.213942 0.4337142,0.567808 0.4951627,0.567808 0.067916,0 0.026886,0.08428 -0.1186493,0.23937 -0.3072418,0.33696 -0.4478045,0.819935 -0.3701854,1.269219 0.048512,0.272775 0.3119084,0.716086 0.5188925,0.871196 l 0.1344691,0.09742 -0.1154852,0.15866 c -0.1649404,0.224641 -0.2467201,0.514368 -0.2499544,0.910161 -0.00647,0.529511 0.158533,0.90006 0.5078186,1.130051 l 0.1850928,0.128031 -0.08701,0.09464 c -0.1358333,0.149776 -0.3041316,0.55285 -0.3591116,0.868416 -0.048512,0.262082 -0.048593,0.303767 0.00316,0.517709 0.071151,0.315563 0.3722345,0.66801 0.5695161,0.66801 0.035575,0 0.060116,0.01146 0.060116,0.02226 0,0.01062 -0.050873,0.154499 -0.1123213,0.325654 -0.2037496,0.561601 -0.2205921,1.075518 -0.042714,1.444572 0.074385,0.155107 0.4184241,0.453691 0.5283844,0.453691 0.035575,0 0.09566,0.01728 0.1344691,0.0334 0.064682,0.02673 0.065704,0.04251 0.026893,0.197619 -0.1940475,0.786243 -0.1009831,1.309111 0.2515362,1.400038 0.074385,0.01596 0.1713847,0.04241 0.2198966,0.05845 l 0.080681,0.02785 -0.044296,0.384104 c -0.038813,0.315547 -0.038676,0.428144 -0.00633,0.620693 0.077619,0.476023 0.3622885,0.761063 0.6533618,0.654092 0.074388,-0.03209 0.1422387,-0.04968 0.1487063,-0.03898 0.00324,0.01062 -0.00746,0.08121 -0.026893,0.161435 -0.054982,0.240685 -0.037858,0.683123 0.030059,0.848926 0.1131937,0.288827 0.2447318,0.381542 0.5584421,0.386891 H 8.675338 l 0.00316,0.428639 c 0.00324,0.695318 0.1001016,0.968231 0.3717681,1.027066 0.1099602,0.0214 0.3982478,-0.06539 0.5631877,-0.167002 0.042046,-0.02676 0.049254,0.03154 0.039551,0.395237 -0.016167,0.492068 0.019058,0.689783 0.1613631,0.882329 0.1358329,0.187201 0.3206281,0.178194 0.5631881,-0.02504 0.10349,-0.08558 0.189768,-0.161433 0.193002,-0.161433 0.0032,0 0.01402,0.193297 0.02373,0.428637 0.0194,0.497417 0.08666,0.732135 0.248372,0.871196 0.142301,0.123005 0.346573,0.08444 0.560025,-0.09743 0.08731,-0.07488 0.164386,-0.133593 0.170853,-0.133593 0.0064,0 0.01265,0.09087 0.01265,0.203186 0,0.320915 0.08814,0.739824 0.181929,0.862845 0.184346,0.240684 0.467653,0.17464 0.78783,-0.183702 l 0.159782,-0.175362 0.01581,0.144732 c 0.0097,0.07488 0.02505,0.244606 0.03797,0.372971 0.02588,0.29417 0.158416,0.539974 0.29425,0.539974 0.135833,0 0.40774,-0.227573 0.57268,-0.484306 l 0.148707,-0.225454 v 1.096647 0.32844 h 9.574199 v -0.420283 c 0,-0.513464 0.0093,-0.935214 0.01898,-0.935214 0.0097,0 0.07748,0.08486 0.151872,0.186477 0.16494,0.235341 0.426193,0.45369 0.542622,0.45369 0.194047,0 0.352784,-0.409743 0.352784,-0.901812 V 34.16333 l 0.197748,0.214321 c 0.106722,0.11231 0.271649,0.23533 0.365439,0.27277 0.152004,0.05348 0.187035,0.04893 0.316398,-0.04732 0.126131,-0.09092 0.155635,-0.139982 0.200913,-0.364621 0.0291,-0.139062 0.05221,-0.370514 0.05221,-0.514925 0,-0.139063 0.0062,-0.256069 0.01265,-0.256069 0.0064,0 0.08669,0.05872 0.174019,0.133591 0.216687,0.181841 0.414418,0.218527 0.563189,0.116898 0.164939,-0.11231 0.229038,-0.341905 0.245208,-0.876763 0.0064,-0.246037 0.01733,-0.442555 0.02056,-0.442555 l 0.193004,0.161433 c 0.307241,0.256733 0.570083,0.190917 0.689747,-0.178135 0.04527,-0.128369 0.05861,-0.289954 0.05537,-0.642959 0,-0.406492 0.0054,-0.463733 0.04746,-0.436989 0.18111,0.117679 0.453367,0.196312 0.55686,0.164226 0.25873,-0.08021 0.352783,-0.362583 0.352783,-1.063249 v -0.406369 l 0.202495,0.0334 c 0.265199,0.03743 0.460506,-0.05391 0.599574,-0.283901 0.10996,-0.181842 0.109438,-0.188284 0.0965,-0.573374 -0.0097,-0.208596 -0.02655,-0.42804 -0.04272,-0.481526 -0.02264,-0.08557 -0.01283,-0.09032 0.06802,-0.05288 0.161707,0.06953 0.385061,0.04272 0.501491,-0.06959 0.223154,-0.208598 0.310662,-0.770982 0.210405,-1.316539 l -0.04272,-0.244934 0.09809,-0.0334 c 0.05174,-0.01596 0.125787,-0.03061 0.161364,-0.03061 0.113193,0 0.332957,-0.209075 0.371766,-0.353487 0.05821,-0.203246 0.04584,-0.556939 -0.02531,-0.904599 -0.03557,-0.171161 -0.06177,-0.314957 -0.05853,-0.325653 0.0064,-0.0053 0.103542,-0.04927 0.216732,-0.09742 0.349286,-0.14977 0.52382,-0.378638 0.588501,-0.790477 0.05499,-0.331611 -0.0031,-0.755214 -0.15187,-1.118916 -0.06146,-0.149773 -0.11074,-0.281557 -0.11074,-0.292257 0,-0.01062 0.03231,-0.02226 0.07436,-0.02226 0.09703,-0.0054 0.342838,-0.192376 0.436629,-0.336786 0.261963,-0.406493 0.214678,-0.983609 -0.128142,-1.555908 l -0.1756,-0.283904 0.148707,-0.08629 c 0.575674,-0.33696 0.734971,-1.309973 0.327472,-1.967846 l -0.151872,-0.239371 0.128141,-0.102994 c 0.158473,-0.133716 0.427387,-0.528566 0.488835,-0.726463 0.06467,-0.197896 0.06149,-0.604804 -0.0031,-0.829445 -0.05821,-0.197897 -0.294748,-0.577301 -0.417646,-0.673576 -0.04527,-0.03209 -0.08068,-0.07582 -0.08068,-0.09185 0.0032,-0.01596 0.07095,-0.08636 0.155035,-0.155868 0.206984,-0.165803 0.439969,-0.50182 0.504654,-0.726458 0.07115,-0.246038 0.06496,-0.556834 -0.01265,-0.765428 -0.05821,-0.165805 -0.284796,-0.442556 -0.355948,-0.442556 -0.06146,0 -0.03248,-0.05865 0.151871,-0.336791 0.336351,-0.513461 0.440875,-0.931871 0.317981,-1.327668 -0.05499,-0.171162 -0.246589,-0.421868 -0.401825,-0.528842 l -0.0965,-0.064 0.183511,-0.225452 c 0.232857,-0.288822 0.417542,-0.62134 0.495162,-0.910164 0.07114,-0.262078 0.07404,-0.393591 0.01582,-0.7626423 l -0.04429,-0.2783376 0.27843,-0.2532889 c 0.711507,-0.63648 1.170259,-1.2765175 1.335198,-1.8648587 0.08086,-0.2834781 0.07766,-0.7386781 -0.0031,-1.0381989 l -0.06486,-0.236576 0.136051,-0.1864846 c 0.705034,-0.9624985 1.01457,-1.9845311 0.772011,-2.530087 l -0.06328,-0.1447364 0.183512,-0.2282367 c 0.559504,-0.7006638 1.203893,-2.085989 1.203893,-2.5941039 0,-0.95204708 -1.297232,-0.5046522 -3.412351,1.1801503 -1.801406,1.4334196 -3.790839,3.5364675 -5.30441,5.6224128 -0.501289,0.68462 -1.510953,2.3374176 -1.795558,2.9364609 -0.730911,1.529692 -1.063025,2.781272 -1.06626,3.957956 0,0.759498 0.112548,1.322359 0.393916,1.942794 l 0.129722,0.281122 -0.05537,0.520491 c -0.09378,0.925301 -0.0678,2.198454 0.06802,3.075627 l 0.04904,0.314521 -0.164527,0.28947 c -0.09056,0.155108 -0.190718,0.389125 -0.22306,0.512142 -0.03235,0.128369 -0.110919,0.301089 -0.175601,0.381321 -0.06467,0.08022 -0.123186,0.185661 -0.132888,0.233805 -0.01293,0.05349 -0.09296,0.16793 -0.18351,0.258852 -0.232856,0.229988 -0.436457,0.586683 -0.51731,0.912946 -0.03882,0.155107 -0.09436,0.289907 -0.120231,0.300604 -0.02587,0.01062 -0.173746,0.01062 -0.332218,0 -0.232857,-0.01597 -0.287922,-0.03346 -0.287922,-0.102994 0,-0.0642 -0.03243,-0.07471 -0.142379,-0.06402 l -0.142379,0.02226 -0.03955,-0.278336 c -0.04851,-0.363701 -0.248489,-0.860491 -0.461941,-1.143966 -0.164941,-0.219294 -0.165194,-0.221135 -0.0617,-0.183703 l 0.105992,0.03898 -0.07118,-0.236586 c -0.08732,-0.288826 -0.293097,-0.791943 -0.419227,-1.032632 -0.08732,-0.160464 -0.09138,-0.181557 -0.03638,-0.19762 0.06146,-0.01596 0.06134,-0.02481 0.0063,-0.292254 -0.0291,-0.155106 -0.09697,-0.380553 -0.148707,-0.498224 -0.197282,-0.465324 -0.187938,-0.43268 -0.129724,-0.395239 0.04851,0.03209 0.04557,-0.0016 -0.01265,-0.24772 -0.03557,-0.155107 -0.135809,-0.453847 -0.219897,-0.662444 -0.08409,-0.208595 -0.161083,-0.405113 -0.174018,-0.442556 -0.0194,-0.03743 -0.0073,-0.04944 0.03797,-0.0334 0.07762,0.0321 0.07886,0.05459 0.0174,-0.517707 -0.07439,-0.732754 -0.109968,-1.296202 -0.145543,-2.43545 -0.03557,-1.026928 -0.07496,-1.625213 -0.120231,-1.823111 -0.0194,-0.08023 -0.0034,-0.07379 0.08068,0.02785 0.05821,0.06419 0.104412,0.10532 0.104412,0.09463 0,-0.01595 -0.04015,-0.165633 -0.08542,-0.33679 -0.197281,-0.738086 -0.564893,-1.470084 -0.923882,-1.823089 -0.404265,-0.406493 -1.656435,-0.707034 -2.089807,-0.503793 -0.161707,0.07488 -0.352433,0.337986 -0.368603,0.503793 -0.0097,0.101624 -0.03268,0.117555 -0.204078,0.133597 -0.15847,0.01062 -0.21621,0.0414 -0.313233,0.169794 -0.09703,0.133711 -0.158666,0.168086 -0.355948,0.194836 -0.553036,0.06953 -0.899739,0.394623 -1.064678,0.993664 -0.07114,0.256733 -0.07752,0.359147 -0.07752,1.043764 0,0.48672 0.01375,0.780874 0.03639,0.818313 0.02587,0.04279 0.04236,0.0047 0.05853,-0.150299 0.02264,-0.267432 0.05378,-0.278338 0.710313,-0.278338 0.543334,0 0.809323,0.07597 1.058352,0.300605 l 0.151871,0.139165 0.02214,0.436989 c 0.0291,0.56695 -0.03154,1.835484 -0.109156,2.343601 -0.126132,0.81833 -0.287461,1.133309 -0.892242,1.759092 -0.77619,0.79694 -1.281505,1.449844 -1.714876,2.193298 -0.452778,0.786241 -0.631214,1.336494 -0.631214,1.96228 v 0.359053 l -0.403407,-0.01672 c -0.339583,-0.01596 -0.404989,-0.0055 -0.404989,0.06402 0,0.05883 -0.05843,0.08138 -0.281594,0.09742 -0.358989,0.02141 -0.387167,0.0097 -0.406572,-0.161433 -0.0291,-0.246034 -0.269405,-0.732623 -0.466687,-0.951915 -0.255495,-0.283473 -0.52656,-0.749374 -0.610648,-1.038198 -0.03557,-0.133716 -0.129621,-0.341805 -0.207241,-0.464822 -0.152004,-0.256734 -0.14778,-0.185376 -0.04429,-0.976963 0.07763,-0.588344 0.08082,-2.231434 0.0032,-2.825126 l -0.04904,-0.38967 0.11074,-0.21432 c 0.151991,-0.299621 0.332607,-0.93791 0.387586,-1.344402 C 12.55695,12.302769 10.755863,8.5911109 7.3179885,4.8043146 6.2507466,3.6329789 5.4054134,2.8216493 4.3090448,1.9123906 2.8488374,0.70026892 1.6220099,0.00197375 1.062803,0.0475307 Z M 5.0415059,27.872912 c -1.006e-4,0.0019 1.014e-4,0.0037 0,0.0055 -1.551e-4,-3.3e-4 0.00179,-0.0055 0.00159,-0.0055 z m -5.63820962,5.135324 c -0.001479,0.0015 0.0120131,0.0619 0.0126559,0.07238 2.42e-6,-0.02088 0.002792,-0.04049 0.003164,-0.06124 -0.001955,-7.6e-5 -0.0151572,-0.01229 -0.01582,-0.01122 z M 10.067486,35.154215 c 0.01551,0.02383 0.0024,0.0079 0.01899,0.0334 -2.84e-4,-0.003 0.02824,0.03096 0.05695,0.06124 h 0.0016 c 0.0427,-0.03283 0.05472,-0.04714 0.08701,-0.07516 -0.04494,-0.0083 -0.09541,-0.01444 -0.164526,-0.01948 z m 0.07593,0.09465 c -0.01045,-0.0086 -0.02118,-0.01653 -0.03164,-0.02505 0.0084,0.0111 0.01658,0.01933 0.02531,0.0306 0.0021,-0.0015 0.0043,-0.004 0.0063,-0.0055 z m -0.03164,-0.02505 c -0.0072,-0.0095 -0.01376,-0.01901 -0.02056,-0.02784 0.0082,0.01274 0.0024,0.0055 0.0095,0.01671 0.0038,0.0032 0.0073,0.0079 0.01108,0.01122 z m -0.02056,-0.02784 c -0.0041,-0.0065 -3.55e-4,-0.0016 -0.0048,-0.0083 5.4e-5,5.8e-4 -0.0145,-0.01558 -0.01108,-0.01122 0.0049,0.0064 0.01075,0.0129 0.01582,0.01948 z m -2.5960448,0.28112 c -0.00462,0.0066 -0.00955,0.01291 -0.014238,0.01948 v 0.0029 0.0029 c 0.00697,0.0111 0.015134,0.01977 0.022148,0.03061 0.00153,-0.0011 0.0032,-0.0016 0.00475,-0.0029 -0.00712,-0.03027 -0.00655,-0.0269 -0.012657,-0.05288 z m -0.1882568,0.161434 c -0.00787,0.0019 -0.014851,0.0088 -0.022148,0.01382 0.00879,0.0096 0.00805,0.02744 0.058534,-0.0029 -0.012239,-0.0025 -0.024063,-0.0096 -0.036386,-0.01122 z m -5.4895026,4.467314 c -0.00717,0.05248 -0.022193,0.148358 -0.03164,0.217104 0.00966,-0.0012 0.020237,-0.0042 0.030058,-0.0055 3.179e-4,-0.07054 0.00133,-0.140983 0.00159,-0.211538 z m 6.1507739,2.171032 c -0.00381,0.0047 -0.00386,0.0032 -0.00791,0.0083 l 0.00159,0.0029 c 0.00235,-0.003 0.00398,-0.0082 0.00633,-0.01122 z M 7.7577796,42.51067 c 0.022007,-0.05579 -0.1117924,0.165254 -0.085428,0.139169 0.017957,-0.01977 0.034637,-0.04319 0.052205,-0.06401 0.010392,-0.02598 0.022935,-0.0491 0.033222,-0.07515 z m -3.8711279,0.236578 c -0.040844,0.05378 -0.041064,0.05566 -0.077517,0.108554 7e-6,0.0055 -7.4e-6,0.0111 0,0.01672 0.022583,-0.03418 0.047363,-0.06316 0.07119,-0.09464 0.00188,-0.01049 0.00438,-0.02022 0.00633,-0.03061 z m 0.3765135,0.470392 c -0.00256,-0.04716 -4.219e-4,0.06736 0.00316,0.141952 0.00104,0.0047 0.00212,0.0095 0.00316,0.01382 -0.00214,-0.05195 -0.00352,-0.104015 -0.00633,-0.155867 z"
     id="path28"
     inkscape:connector-curvature="0" />
  <g
     id="g149"
     transform="matrix(3.8805258e-4,2.8234479e-4,1.2616225e-4,-5.1712323e-4,16.820057,9.3157134)"
     style="fill:#800000;stroke:none"
     inkscape:transform-center-x="1.2361154"
     inkscape:transform-center-y="1.622367">
    <path
       id="path147"
       d="m 195896.92,110847.26 c -756,-42 -1395,-132 -2065,-291 -1519,-361 -2544,-932 -2592,-1445 -5,-52 0,-79 30,-180 20,-66 117,-416 216,-779 99,-363 311,-1139 471,-1725 160,-586 359,-1312 441,-1615 83,-302 156,-571 164,-597 l 14,-48 -102,-30 c -56,-17 -239,-76 -407,-131 -1050,-344 -1806,-719 -2166,-1074 -253,-250 -290,-466 -111,-645 461,-463 2099,-628 4402,-444 2223,177 4709,689 6390,1314 1087,405 1765,840 1877,1204 173,567 -1124,913 -3212,857 -223,-6 -437,-14 -475,-17 l -71,-6 -37,688 c -21,379 -51,925 -67,1214 -16,289 -52,939 -80,1445 -28,506 -57,1036 -65,1179 -8,142 -15,295 -15,340 0,152 -39,245 -148,348 -78,74 -134,111 -265,173 -271,129 -628,210 -1107,250 -221,18 -803,27 -1020,15 z"
       inkscape:connector-curvature="0"
       style="fill:#800000" />
  </g>
</svg>
