<?xml version="1.0" encoding="UTF-8" standalone="no"?>
<!-- Created with Inkscape (http://www.inkscape.org/) -->

<svg
   width="48"
   height="48"
   viewBox="0 0 12.7 12.7"
   version="1.1"
   id="svg8"
   inkscape:version="1.1.2 (08b2f3d93c, 2022-04-05)"
   sodipodi:docname="sara_logo.svg"
   xmlns:inkscape="http://www.inkscape.org/namespaces/inkscape"
   xmlns:sodipodi="http://sodipodi.sourceforge.net/DTD/sodipodi-0.dtd"
   xmlns="http://www.w3.org/2000/svg"
   xmlns:svg="http://www.w3.org/2000/svg"
   xmlns:rdf="http://www.w3.org/1999/02/22-rdf-syntax-ns#"
   xmlns:cc="http://creativecommons.org/ns#"
   xmlns:dc="http://purl.org/dc/elements/1.1/">
  <defs
     id="defs2">
    <marker
       style="overflow:visible"
       id="Arrow1Lstart"
       refX="0.0"
       refY="0.0"
       orient="auto"
       inkscape:stockid="Arrow1Lstart"
       inkscape:isstock="true">
      <path
         transform="scale(0.8) translate(12.5,0)"
         style="fill-rule:evenodd;fill:context-stroke;stroke:context-stroke;stroke-width:1.0pt"
         d="M 0.0,0.0 L 5.0,-5.0 L -12.5,0.0 L 5.0,5.0 L 0.0,0.0 z "
         id="path1218" />
    </marker>
    <inkscape:path-effect
       effect="pts2ellipse"
       id="path-effect13848"
       is_visible="true"
       lpeversion="1"
       method="auto"
       gen_arc="false"
       arc_other="false"
       slice_arc="false"
       gen_isometric_frame="false"
       draw_axes="false"
       gen_perspective_frame="false"
       draw_perspective_axes="false"
       rot_axes="0"
       draw_ori_path="false" />
    <inkscape:path-effect
       effect="ellipse_5pts"
       id="path-effect13846"
       is_visible="true"
       lpeversion="1" />
    <inkscape:path-effect
       effect="rough_hatches"
       id="path-effect13825"
       is_visible="true"
       lpeversion="1"
       direction="116.82124,266.92444 , 3.1725173,0"
       dist_rdm="75;1"
       growth="0"
       do_bend="true"
       bender="116.82124,271.92444 , 5,0"
       bottom_edge_variation="1.2647938;1"
       top_edge_variation="1.2647938;1"
       bottom_tgt_variation="0;1"
       top_tgt_variation="0;1"
       scale_bf="1"
       scale_bb="1"
       scale_tf="1"
       scale_tb="1"
       top_smth_variation="0;1"
       bottom_smth_variation="0;1"
       fat_output="true"
       stroke_width_top="1"
       stroke_width_bottom="1"
       front_thickness="1"
       back_thickness="0.25" />
  </defs>
  <sodipodi:namedview
     id="base"
     pagecolor="#ffffff"
     bordercolor="#666666"
     borderopacity="1.0"
     inkscape:pageopacity="0.0"
     inkscape:pageshadow="2"
     inkscape:zoom="2"
     inkscape:cx="-151"
     inkscape:cy="-8.5"
     inkscape:document-units="mm"
     inkscape:current-layer="layer1"
     showgrid="false"
     units="px"
     inkscape:window-width="1875"
     inkscape:window-height="1025"
     inkscape:window-x="45"
     inkscape:window-y="27"
     inkscape:window-maximized="1"
     inkscape:pagecheckerboard="1" />
  <metadata
     id="metadata5">
    <rdf:RDF>
      <cc:Work
         rdf:about="">
        <dc:format>image/svg+xml</dc:format>
        <dc:type
           rdf:resource="http://purl.org/dc/dcmitype/StillImage" />
      </cc:Work>
    </rdf:RDF>
  </metadata>
  <g
     inkscape:label="Layer 1"
     inkscape:groupmode="layer"
     id="layer1"
     transform="translate(0,-290.65)">
    <text
       xml:space="preserve"
       style="font-style:normal;font-variant:normal;font-weight:normal;font-stretch:normal;font-size:5.76799px;line-height:1.25;font-family:sans-serif;-inkscape-font-specification:'sans-serif, Normal';font-variant-ligatures:normal;font-variant-caps:normal;font-variant-numeric:normal;font-feature-settings:normal;text-align:start;letter-spacing:0px;word-spacing:0px;writing-mode:lr-tb;text-anchor:start;fill:#000000;fill-opacity:1;stroke:none;stroke-width:0.270374"
       x="4.7450533"
       y="268.42484"
       id="text92"
       transform="scale(0.90659139,1.1030328)" />
    <g
       aria-label="I"
       transform="matrix(-17.050416,-0.33236149,-12.703434,-1.6316424,-70.816556,0.19505597)"
       style="font-style:normal;font-variant:normal;font-weight:normal;font-stretch:normal;font-size:2.1511px;line-height:1.25;font-family:sans-serif;-inkscape-font-specification:'sans-serif, Normal';font-variant-ligatures:normal;font-variant-caps:normal;font-variant-numeric:normal;font-feature-settings:normal;text-align:start;letter-spacing:0px;word-spacing:0px;writing-mode:lr-tb;text-anchor:start;white-space:pre;fill:#008000;fill-opacity:1;stroke:none;stroke-width:0.0896292"
       id="text8285-9-2-0-8" />
    <g
       id="text8285-9"
       style="font-style:normal;font-variant:normal;font-weight:normal;font-stretch:normal;font-size:2.1511px;line-height:1.25;font-family:sans-serif;-inkscape-font-specification:'sans-serif, Normal';font-variant-ligatures:normal;font-variant-caps:normal;font-variant-numeric:normal;font-feature-settings:normal;text-align:start;letter-spacing:0px;word-spacing:0px;writing-mode:lr-tb;text-anchor:start;white-space:pre;fill:#008000;fill-opacity:1;stroke:none;stroke-width:0.0896292"
       transform="matrix(-1.0564487,0.38845142,-0.79004219,-1.8494896,-0.86650322,-160.48887)"
       aria-label="I" />
    <g
       id="text8285"
       style="font-style:normal;font-variant:normal;font-weight:normal;font-stretch:normal;font-size:2.1511px;line-height:1.25;font-family:sans-serif;-inkscape-font-specification:'sans-serif, Normal';font-variant-ligatures:normal;font-variant-caps:normal;font-variant-numeric:normal;font-feature-settings:normal;text-align:start;letter-spacing:0px;word-spacing:0px;writing-mode:lr-tb;text-anchor:start;white-space:pre;fill:#008000;fill-opacity:1;stroke:none;stroke-width:0.0896292"
       transform="matrix(1.0253218,0.47263425,-0.60583976,1.9256814,-0.86650322,-160.48887)"
       aria-label="I" />
    <g
       inkscape:transform-center-y="4.1768002"
       inkscape:transform-center-x="0.12157447"
       id="text8285-9-2-0-6"
       style="font-style:normal;font-variant:normal;font-weight:normal;font-stretch:normal;font-size:2.1511px;line-height:1.25;font-family:sans-serif;-inkscape-font-specification:'sans-serif, Normal';font-variant-ligatures:normal;font-variant-caps:normal;font-variant-numeric:normal;font-feature-settings:normal;text-align:start;letter-spacing:0px;word-spacing:0px;writing-mode:lr-tb;text-anchor:start;white-space:pre;fill:#c87137;fill-opacity:1;stroke:none;stroke-width:0.0896292"
       transform="matrix(-0.15963169,-1.1161563,0.69887994,-0.84116744,182.02525,288.93946)"
       aria-label="I" />
    <g
       inkscape:transform-center-y="4.1624815"
       inkscape:transform-center-x="0.089834585"
       id="text8285-9-2-0-6-9"
       style="font-style:normal;font-variant:normal;font-weight:normal;font-stretch:normal;font-size:2.1511px;line-height:1.25;font-family:sans-serif;-inkscape-font-specification:'sans-serif, Normal';font-variant-ligatures:normal;font-variant-caps:normal;font-variant-numeric:normal;font-feature-settings:normal;text-align:start;letter-spacing:0px;word-spacing:0px;writing-mode:lr-tb;text-anchor:start;white-space:pre;fill:#008000;fill-opacity:1;stroke:none;stroke-width:0.0896292"
       transform="matrix(-0.12123225,-1.123518,0.52790681,-0.80911213,139.41116,298.22048)"
       aria-label="I" />
    <g
       inkscape:transform-center-y="6.8656018"
       inkscape:transform-center-x="0.20678042"
       id="text8285-9-2-0-6-0"
       style="font-style:normal;font-variant:normal;font-weight:normal;font-stretch:normal;font-size:2.1511px;line-height:1.25;font-family:sans-serif;-inkscape-font-specification:'sans-serif, Normal';font-variant-ligatures:normal;font-variant-caps:normal;font-variant-numeric:normal;font-feature-settings:normal;text-align:start;letter-spacing:0px;word-spacing:0px;writing-mode:lr-tb;text-anchor:start;white-space:pre;fill:#00d7ff;fill-opacity:1;stroke:none;stroke-width:0.0896292"
       transform="matrix(-0.27152242,-1.8346698,1.1887463,-1.3826599,304.987,287.3016)"
       aria-label="I" />
    <g
       id="text8285-9-2"
       style="font-style:normal;font-variant:normal;font-weight:normal;font-stretch:normal;font-size:2.1511px;line-height:1.25;font-family:sans-serif;-inkscape-font-specification:'sans-serif, Normal';font-variant-ligatures:normal;font-variant-caps:normal;font-variant-numeric:normal;font-feature-settings:normal;text-align:start;letter-spacing:0px;word-spacing:0px;writing-mode:lr-tb;text-anchor:start;white-space:pre;fill:#008000;fill-opacity:1;stroke:none;stroke-width:0.0896292"
       transform="matrix(-1.0564487,0.39843795,-0.7900422,-1.8970373,1.3098835,-171.58128)"
       aria-label="I" />
    <path
       id="path3976"
       style="opacity:1;fill:#4d4d4d;stroke-width:0;stroke-linejoin:bevel;stroke-miterlimit:0"
       transform="matrix(0.26458333,0,0,0.26458333,0,290.65)"
       d="m -119.55859,-42.226562 c -21.63812,0.03037 -44.99794,0.79894 -53.17774,4.857421 -32.36826,22.443477 53.2025,52.993984 77.101564,77.484375 -3.790448,5.693968 -9.789814,6.612491 -17.228514,7.488282 -15.41301,1.814642 -36.12207,-2.689181 -49.98047,-8.28125 -11.28778,-4.554786 -14.54347,-11.723174 -16.55469,-8.658204 -2.10869,3.772804 2.08661,13.727099 4.55664,18.394532 1.13976,1.849936 3.11602,3.987682 5.23633,6.041015 l 6.48828,2.511719 c 0.0928,-0.01056 0.20376,-0.01425 0.33985,-0.0098 0.35294,0.01184 0.37751,0.0082 0,0.140626 l 0.67773,0.263671 h 0.004 c 0.005,8.81e-4 0.009,0.0024 0.0137,0.0039 0.007,0.0023 0.0147,0.0054 0.0215,0.0078 0.0339,0.0121 0.0676,0.02149 0.10157,0.0332 0.0404,0.01852 0.0845,0.02382 0.12695,0.03516 0.0268,0.0072 0.0513,0.02016 0.0781,0.02734 0.0211,0.0053 0.0366,0.02174 0.0566,0.0293 0.0408,0.01398 0.0821,0.02911 0.125,0.03516 0.0239,0.0057 0.0476,0.0085 0.0703,0.01758 0.008,0.0032 0.008,0.0066 0.0156,0.0039 0.0257,-0.0026 0.0551,0.0082 0.0781,0.01953 0.002,-2.12e-4 0.002,-0.0022 0.004,-0.002 0.0213,0.003 0.0168,0.0065 0.0391,0.01367 0.005,0.0016 0.0104,0.0044 0.0156,0.0059 26.79367,2.047904 66.24518,2.220198 77.052735,-2.464844 28.891483,-12.524329 4.807931,-45.518815 -67.593745,-81.265625 5.7431,-4.172636 36.34653,-4.085607 57.412104,1.861329 12.220377,3.449909 19.440371,14.4955159 21.396485,13.1875 1.469854,-0.982904 1.959564,-7.2257 0.738281,-11.390626 -1.540707,-5.25422 -4.94742,-10.157125 -8.660156,-13.832031 -0.375455,-0.185154 -0.818142,-0.371809 -1.191406,-0.55664 -3.742404,-1.853143 -7.385156,-3.900732 -11.060547,-5.884766 -4.037031,0.05541 -14.015561,-0.134432 -26.302731,-0.117187 z m -41.99219,100.443359 0.0117,0.0059 c 0.007,5.25e-4 0.0147,0.0014 0.0215,0.002 -0.003,-10e-4 -0.004,-0.003 -0.008,-0.0039 -0.008,-0.0021 -0.0168,-0.0027 -0.0254,-0.0039 z" />
    <path
       id="path52"
       style="opacity:1;fill:#ac9393;stroke:#01064a;stroke-width:3.74722;stroke-linecap:round;paint-order:markers stroke fill"
       transform="matrix(0.26458333,0,0,0.26458333,0,290.65)"
       d="m -242.31387,-16.80111 c -16.59366,7.1775881 -41.85019,20.4351817 -41.85019,44.830407 0,4.155061 49.00007,5.728833 49.79492,9.541015 -3.13952,29.661212 -80.0394,58.67217 -37.11457,42.470514 21.65979,-9.12328 51.89748,-32.135501 52.7923,-52.011529 0,-5.194016 -50.49839,-6.853447 -51.71875,-11.482422 -4.51141,-17.11230236 94.30843,-61.988053 28.09629,-33.347985 z"
       sodipodi:nodetypes="sscccss" />
    <path
       id="path4845"
       style="opacity:1;fill:#ac9393;stroke:#01064a;stroke-width:0.851249;stroke-linecap:round;paint-order:markers stroke fill"
       d="m 19.631381,337.81507 c 10e-7,5.3104 -8.522822,14.19517 -11.2715817,14.19517 -2.111594,0 9.2327727,-8.8634 8.5096787,-12.44856 -0.218191,-1.08182 -7.1922407,-0.51566 -7.1922407,-1.74661 -10e-7,-5.3104 2.2283117,-9.61533 4.9770717,-9.61533 2.138197,0 3.961474,2.60488 4.665963,6.26162 0.201167,1.04419 0.311109,2.17414 0.311109,3.35371 z"
       sodipodi:nodetypes="sssssss" />
    <path
       id="path4845-3"
       style="fill:#ac9393;stroke:#01064a;stroke-width:0.851249;stroke-linecap:round;paint-order:markers stroke fill"
       d="m -1.2798938,328.20997 c -1e-6,5.3104 8.522822,14.19517 11.271582,14.19517 2.1115938,0 -9.23277301,-8.8634 -8.509679,-12.44856 0.8808138,-0.95419 2.3360165,-1.30557 3.5698266,-1.69073 2.2648961,-0.70705 4.2855032,-1.26809 4.182165,-4.04505 -0.2902153,-3.4294 -3.2670542,-5.62616 -5.5368226,-5.62616 -2.138197,0 -3.96147401,2.60488 -4.66596301,6.26162 -0.20116699,1.04419 -0.31110899,2.17414 -0.31110899,3.35371 z"
       sodipodi:nodetypes="sscscsss" />
    <ellipse
       style="opacity:1;fill:#cccccc;fill-opacity:1;stroke:none;stroke-width:0.892;stroke-linecap:round;stroke-linejoin:miter;stroke-miterlimit:4;stroke-dasharray:none;stroke-opacity:1;paint-order:markers stroke fill"
       id="path6088"
       cx="-91.199921"
       cy="276.22748"
       rx="9.2840557"
       ry="5.9832306" />
    <ellipse
       style="opacity:1;fill:#cccccc;fill-opacity:1;stroke:none;stroke-width:0.892;stroke-linecap:round;stroke-linejoin:miter;stroke-miterlimit:4;stroke-dasharray:none;stroke-opacity:1;paint-order:markers stroke fill"
       id="path6090"
       cx="-88.327492"
       cy="270.18192"
       rx="4.8252563"
       ry="5.3075423" />
    <ellipse
       style="opacity:1;fill:#cccccc;fill-opacity:1;stroke:none;stroke-width:0.892;stroke-linecap:round;stroke-linejoin:miter;stroke-miterlimit:4;stroke-dasharray:none;stroke-opacity:1;paint-order:markers stroke fill"
       id="path6092"
       cx="-95.542488"
       cy="270.09833"
       rx="6.6224008"
       ry="4.7476592" />
    <path
       id="path52-6"
       style="fill:#008000;stroke:#01064a;stroke-width:0.380466;stroke-linecap:round;paint-order:markers stroke fill"
       d="m -65.846114,258.84799 c -0.09458,-0.005 -0.819014,0.24003 -2.560987,0.85648 -1.862666,0.65915 -4.697698,1.87672 -4.697698,4.11712 0,0.19848 1.482402,0.3328 2.92218,0.46531 l 0.412337,-1.13895 c -0.961897,-0.11031 -1.741288,-0.22777 -1.790641,-0.38093 -0.387722,-1.20321 6.023776,-3.90096 5.714809,-3.91903 z m -2.848948,4.41793 -0.407162,1.12543 c 0.870295,0.0899 1.556097,0.18569 1.586862,0.30641 -0.352417,2.72398 -8.98454,5.38837 -4.166157,3.90048 2.431348,-0.83787 5.825707,-2.9513 5.926151,-4.77665 0,-0.24331 -1.476451,-0.40199 -2.939694,-0.55567 z" />
    <path
       id="path52-6-6"
       style="fill:#008000;stroke:#01064a;stroke-width:1.43798;stroke-linecap:round;paint-order:markers stroke fill"
       transform="matrix(0.26458333,0,0,0.26458333,0,290.65)"
       d="m -178.72656,-141.91602 c -0.35747,-0.0189 -3.09586,0.90644 -9.67969,3.23633 -7.04,2.49128 -17.75586,7.0929 -17.75586,15.56055 0,0.75016 5.60324,1.25894 11.04492,1.75976 l 1.5586,-4.30468 c -3.63552,-0.41692 -6.58105,-0.86058 -6.76758,-1.43946 -1.46541,-4.54756 22.76736,-14.7442 21.59961,-14.8125 z" />
    <path
       id="path52-6-6-2"
       style="fill:#ff6600;stroke:#01064a;stroke-width:0.400842;stroke-linecap:round;paint-order:markers stroke fill"
       d="m -54.645292,263.48726 c 0.09458,0.006 0.818663,-0.26758 2.559484,-0.95475 1.861442,-0.73476 4.694415,-2.09092 4.690249,-4.57772 -3.69e-4,-0.2203 -1.483138,-0.36723 -2.923162,-0.5119 l -0.410261,1.2649 c 0.962103,0.12083 1.741646,0.24986 1.791295,0.41973 0.389956,1.33489 -6.016608,4.34019 -5.707605,4.35974 z" />
    <path
       id="path52-6-6-27"
       style="fill:#c87137;stroke:#01064a;stroke-width:0.380466;stroke-linecap:round;paint-order:markers stroke fill;fill-opacity:1"
       d="m 9.2399546,258.99355 c -0.094581,-0.005 -0.819113,0.23983 -2.5610846,0.85628 -1.8626667,0.65915 -4.6979046,1.87666 -4.6979046,4.11706 0,0.19848 1.4825239,0.33309 2.9223017,0.4656 l 0.4123796,-1.13895 c -0.961898,-0.11031 -1.7412361,-0.22769 -1.7905888,-0.38085 -0.3877231,-1.20321 6.0238639,-3.90107 5.7148967,-3.91914 z" />
    <path
       id="path52-6-6-2-0"
       style="fill:#01064a;stroke:#01064a;stroke-width:0.400842;stroke-linecap:round;paint-order:markers stroke fill;fill-opacity:1"
       d="m 1.882731,269.37942 c 0.09458,0.006 0.818663,-0.26758 2.559484,-0.95475 1.861442,-0.73476 4.694415,-2.09092 4.690249,-4.57772 -3.69e-4,-0.2203 -1.483138,-0.36723 -2.923162,-0.5119 l -0.410261,1.2649 c 0.962103,0.12083 1.741646,0.24986 1.791295,0.41973 0.389956,1.33489 -6.016608,4.34019 -5.707605,4.35974 z" />
    <path
       id="path52-6-6-9"
       style="fill:#c87137;stroke:#01064a;stroke-width:0.45478;stroke-linecap:round;paint-order:markers stroke fill;fill-opacity:1"
       d="m 11.231189,291.2747 c -0.126176,-0.005 -1.092742,0.25686 -3.4166279,0.9171 -2.4849001,0.70595 -6.2672639,2.00993 -6.2672639,4.40944 0,0.21258 1.9777687,0.35674 3.8985117,0.49867 l 0.5501371,-1.21984 c -1.2832249,-0.11815 -2.322905,-0.24386 -2.3887442,-0.4079 -0.517244,-1.28865 8.0361672,-4.17812 7.6239872,-4.19747 z" />
    <path
       id="path52-6-6-2-1"
       style="fill:#00d7ff;stroke:#01064a;stroke-width:0.490433;stroke-linecap:round;paint-order:markers stroke fill;fill-opacity:1"
       d="m 1.7813772,302.913 c 0.1228788,0.007 1.063612,-0.30832 3.3252974,-1.10009 2.4183968,-0.84661 6.0990134,-2.40922 6.0935994,-5.27457 -4.78e-4,-0.25384 -1.9269011,-0.42313 -3.7977892,-0.58982 l -0.5330136,1.45745 c 1.2499701,0.13922 2.2627572,0.28789 2.3272614,0.48362 0.5066333,1.5381 -7.816814,5.00087 -7.4153554,5.02341 z" />
    <ellipse
       style="opacity:1;fill:none;fill-opacity:1;stroke:#ff6600;stroke-width:4.32457;stroke-linecap:round;stroke-linejoin:miter;stroke-miterlimit:4;stroke-dasharray:none;stroke-opacity:1;paint-order:markers stroke fill"
       id="path7525"
       cx="161.30841"
       cy="100.75709"
       rx="13.189272"
       ry="19.627264"
       transform="matrix(0.12780983,0.99179869,-0.42511904,0.90513745,0,0)"
       inkscape:transform-center-x="6.2105768"
       inkscape:transform-center-y="8.9432875" />
  </g>
</svg>
