<?xml version="1.0" encoding="UTF-8" standalone="no"?>
<svg
   width="96"
   height="96"
   fill="none"
   version="1.1"
   id="svg1230"
   sodipodi:docname="supportinglangauges.svg"
   inkscape:version="1.2 (1:1.2.1+202207142221+cd75a1ee6d)"
   xmlns:inkscape="http://www.inkscape.org/namespaces/inkscape"
   xmlns:sodipodi="http://sodipodi.sourceforge.net/DTD/sodipodi-0.dtd"
   xmlns="http://www.w3.org/2000/svg"
   xmlns:svg="http://www.w3.org/2000/svg">
  <defs
     id="defs1234" />
  <sodipodi:namedview
     id="namedview1232"
     pagecolor="#ffffff"
     bordercolor="#000000"
     borderopacity="0.25"
     inkscape:showpageshadow="2"
     inkscape:pageopacity="0.0"
     inkscape:pagecheckerboard="0"
     inkscape:deskcolor="#d1d1d1"
     showgrid="false"
     inkscape:zoom="2.28125"
     inkscape:cx="66.849315"
     inkscape:cy="37.917808"
     inkscape:window-width="1872"
     inkscape:window-height="1016"
     inkscape:window-x="48"
     inkscape:window-y="27"
     inkscape:window-maximized="1"
     inkscape:current-layer="svg1230" />
  <path
     d="M44 2.3093a8 8 0 018 0l33.5692 19.3812a8 8 0 014 6.9282v38.7624a7.9998 7.9998 0 01-4 6.9282L52 93.6905a7.9998 7.9998 0 01-8 0L10.4308 74.3093a7.9998 7.9998 0 01-4-6.9282V28.6187a8 8 0 014-6.9282L44 2.3093z"
     fill="#fff"
     id="path1224" />
  <path
     fill-rule="evenodd"
     clip-rule="evenodd"
     d="M84.1907 22.9024L51.5701 4.069a7.233 7.233 0 00-7.2331 0L11.7165 22.9024a7.2332 7.2332 0 00-3.6166 6.2641v37.667a7.233 7.233 0 003.6166 6.264L44.337 91.931a7.233 7.233 0 007.2331 0l32.6206-18.8335a7.233 7.233 0 003.6165-6.264v-37.667a7.2333 7.2333 0 00-3.6165-6.2641zM53.1201 1.3844a10.333 10.333 0 00-10.333 0L10.1665 20.2178A10.3332 10.3332 0 005 29.1665v37.667a10.333 10.333 0 005.1665 8.9486l32.6206 18.8335a10.333 10.333 0 0010.333 0l32.6205-18.8335a10.3328 10.3328 0 005.1665-8.9486v-37.667a10.3331 10.3331 0 00-5.1665-8.9487L53.1201 1.3844z"
     fill="#138C94"
     id="path1226"
     style="fill:#323b44;fill-opacity:1" />
  <g
     id="line_35_-6"
     transform="matrix(0.13619985,0,0,0.12751514,13.979097,14.418922)"
     style="fill:#1fbef6;fill-opacity:1">
    <path
       d="M 174.203,490 V 281.061 H 67.015 V 490 Z M 97.64,311.686 h 45.938 V 459.375 H 97.64 Z"
       id="path2-2"
       style="fill:#1fbef6;fill-opacity:1" />
    <path
       d="M 204.828,490 H 312.016 V 210.623 H 204.828 Z m 30.625,-248.752 h 45.937 v 218.127 h -45.937 z"
       id="path4-9"
       style="fill:#1fbef6;fill-opacity:1" />
    <path
       d="M 449.828,136.312 H 342.64 V 490 H 449.828 Z M 419.203,459.375 H 373.265 V 166.937 h 45.938 z"
       id="path6-1"
       style="fill:#1fbef6;fill-opacity:1" />
    <path
       d="m 344.799,0 -89.716,49.046 29.982,19.432 C 190.572,185.894 41.704,214.344 40.172,214.635 l 5.451,30.135 c 6.845,-1.24 163.783,-30.962 265.304,-159.526 l 30.855,19.983 z"
       id="path8-2"
       style="fill:#1fbef6;fill-opacity:1" />
  </g>
</svg>
